<?xml version="1.0" encoding="utf-8"?>
<!-- Generator: Adobe Illustrator 21.1.0, SVG Export Plug-In . SVG Version: 6.00 Build 0)  -->
<svg version="1.1" id="Layer_1" xmlns="http://www.w3.org/2000/svg" xmlns:xlink="http://www.w3.org/1999/xlink" x="0px" y="0px"
	 viewBox="0 0 400 400" style="enable-background:new 0 0 400 400;" xml:space="preserve">
<style type="text/css">
	.st0{fill:#F79F1B;}
</style>
<title>PSW_Logo</title>
<path class="st0" d="M86.9,139.4H25v121.3h32.4v-29.9h29.7c9.1,0,16.6-3,22.8-9.3c6.2-6,9.6-14.4,9.5-23v-26.7
	c0.1-8.6-3.3-16.9-9.5-22.8C103.9,142.7,95.6,139.3,86.9,139.4z M87.1,198.4H57.2v-26.7h29.9L87.1,198.4z"/>
<path class="st0" d="M341.4,139.3l-15,76.8l-12.9-76.8h-22.6L278,216.1l-15-76.8h-14.7h-82.6c-8.7-0.1-17,3.3-23,9.5
	c-6.2,6-9.6,14.4-9.5,23V183c-0.1,8.6,3.3,16.9,9.5,22.8c6.2,6.1,14.6,9.5,23.2,9.3h29.5v15.2h-60v30.3h60c9.1,0,16.6-3,22.8-9.3
	c6.2-6,9.6-14.4,9.5-23v-13.1c0.1-8.6-3.3-16.9-9.5-22.8c-6-6.2-14.4-9.7-23-9.5h-29.5v-13.2h70.1l17.7,90.9h35.6l13.1-65.3
	l13.3,65.3h35.8L375,139.3H341.4z"/>
</svg>
