<?xml version="1.0" standalone="no"?>
<!DOCTYPE svg PUBLIC "-//W3C//DTD SVG 20010904//EN"
 "http://www.w3.org/TR/2001/REC-SVG-20010904/DTD/svg10.dtd">
<svg version="1.0" xmlns="http://www.w3.org/2000/svg"
 width="520.000000pt" height="520.000000pt" viewBox="0 0 520.000000 520.000000"
 preserveAspectRatio="xMidYMid meet">
<metadata>
Created by potrace 1.11, written by Peter Selinger 2001-2013
</metadata>
<g transform="translate(0.000000,520.000000) scale(0.100000,-0.100000)"
fill="#000000" stroke="none">
<path d="M2470 3084 c-97 -26 -145 -55 -227 -135 -98 -96 -151 -242 -140 -384
8 -97 12 -110 51 -190 49 -99 128 -176 233 -227 77 -37 92 -40 181 -44 222 -9
391 91 484 286 38 78 41 92 44 186 3 72 -1 117 -12 155 -50 171 -181 303 -349
352 -65 19 -196 19 -265 1z"/>
</g>
</svg>
