<?xml version="1.0" encoding="utf-8"?>
<!-- Generator: Adobe Illustrator 21.1.0, SVG Export Plug-In . SVG Version: 6.00 Build 0)  -->
<svg version="1.1" id="Layer_1" xmlns="http://www.w3.org/2000/svg" xmlns:xlink="http://www.w3.org/1999/xlink" x="0px" y="0px"
	 viewBox="0 0 400 400" style="enable-background:new 0 0 400 400;" xml:space="preserve">
<style type="text/css">
	.st0{fill:#FF9F1C;}
</style>
<title>scratchmade-Asset 1</title>
<path class="st0" d="M50.1,199.2c1.2,0.1,2.5,0.3,3.6,0.8c4.4,2,9.2,3,14.1,3c13.6,0,18.7-7.6,19.5-15.4c7.2,13.8,24.3,19.2,38.1,12
	c0.9-0.5,1.8-1,2.6-1.5v3.2h31.9v-5.9c-5.8-0.4-8.4-4-8.4-8.9v-20.9c0-13.6,7.5-19.1,16.7-13.3l7-12.3c-2.2-2.2-5.3-3.3-8.4-3.2
	c-5.9,0-14.1,5-16.6,13.7l-1.7-11.9h-20.4v4.1c-4.4-3.9-10.1-6-16-5.8c-19.1,0-29.3,14.3-29.3,32.3c0,1.2,0,2.3,0.1,3.5
	c-1.8-2.2-4-4-6.4-5.4L62,158.5c-2.7-1.4-4.4-4-4.6-7c0.2-4.1,3.7-7.2,7.8-7h0.1c7.3,0,12.2,7,12.2,12.2v0.9h5.8v-19.2h-5.2
	c-0.1,1.3-0.8,1.9-2.3,1.9c-3.1,0-7-3.5-14.5-3.5c-6.2,0-16.7,3.8-16.7,16.8c0,6.8,2.9,12.3,12.3,18.2l11.7,7.3
	c2.8,1.7,4.5,4.8,4.6,8.1c0,4.2-3,8.2-9.3,8.2c-9.8,0-16.3-7.7-16.3-13.7V180h-5.7v21.4h5.2C47.2,200.6,47.9,199.2,50.1,199.2z
	 M113.3,144.3c5.2,0,10.1,2.5,11.6,6.7c-4.5,0-8.2,3.7-8.2,8.2s3.7,8.2,8.2,8.2l0,0c5.4,0,9-4.3,9-10.9c0-4.2-1.4-8.3-4-11.7
	c4.5,1,6.6,4.3,6.6,8.7v33.2c0,1-6.2-2.5-6.2-2.5c-3.6,5.8-7.7,9.9-15.8,9.9c-8.6,0-16-8.3-16-25.5
	C98.6,156.6,102.9,144.3,113.3,144.3z"/>
<path class="st0" d="M350.2,186.5v-27.8c0-13.8-2.6-21.9-18.5-21.9c-5.1,0-10,2.3-13.3,6.2v-35.9H295v5.9c7.3,0.8,8.3,5,8.4,7.8
	v65.8c0,0.8-0.1,1.6-0.3,2.4l-5.4-4.9c-3.6,5.8-7.7,9.9-15.8,9.9c-8.6,0-16-8.3-16-25.5c0-11.8,4.3-24.1,14.7-24.1
	c5.2,0,10.1,2.5,11.6,6.7c-4.5,0-8.2,3.7-8.2,8.2s3.7,8.2,8.2,8.2l0,0c5.4,0,9-4.3,9-10.9c0-10.8-8.4-19.5-21.7-19.5
	c-19.1,0-29.3,14.3-29.3,32.3s11.7,33.7,29.7,33.7c5.3,0,10.6-1.5,15.1-4.4v2.8h63.6v-5.9C352.8,195.1,350.2,191.4,350.2,186.5z
	 M335.2,186.5c0,4.9-2.6,8.9-8.4,8.9s-8.4-4-8.4-8.9v-26.7c0-5.8,1.5-13.7,8.7-13.7c4.2,0,8.2,1.7,8.2,13.1L335.2,186.5z"/>
<path class="st0" d="M262,225.9c-16.3,0-26.5,11.5-28.5,26.5v-51h17.4v-5.9c-9.9-0.9-8.4-7.7-8.4-9.5v-39.6h6v-7.8h-6v-31.4h-8.6
	c0,7.3-1.7,15.1-6.4,18.5v13h-6.3v7.8h6.3v39.6c0,1.6,0.8,7-5.3,9c-3.9-1.3-6.4-4.9-6.2-9v-29.7c0-11.6-8.9-19.4-23.1-19.4
	s-22,8.3-22,18.2c-0.2,3.6,1.1,7.2,3.6,9.8c-5.5,4.3-8.7,10.9-8.7,17.9c0,10.3,7.4,20.1,21.7,20.1c7.4,0,12.2-2.6,15.5-7.8l1.7,6.3
	l5.4,0.7c9.4,0.9,8.4,7.9,8.4,9.5v21.9c-3.3-5-8.4-8.7-17.1-8.7c-12.7,0-22.1,12.5-23.6,28.6v-8c0-11.6-8.9-19.4-23.1-19.4
	s-22,8.3-22,18.2c-0.2,3.6,1.1,7.2,3.6,9.8c-4.4,3.5-7.3,8.5-8.3,14v-20.2c0-13.8-2.6-21.9-18.5-21.9c-6,0.2-11.6,3.3-14.8,8.4
	c-2.3-5.4-7-8.4-16.6-8.4c-5.9,0-11.3,3-14.6,7.9l-0.9-6.3H41.4v5.9c5.8,0.4,8.4,4,8.4,8.9v33.2c0,5.2-2.6,8.6-8.4,8.9v5.9h95v-2
	c3.9,2.4,8.4,3.6,12.9,3.5c7.4,0,12.2-2.6,15.5-7.8l1.7,6.3h19.6v-5.9c-5.8-1-8.4-4.9-8.4-9.5v-12c1.6,16.2,11,28.6,25,28.6
	c6.7,0.1,12.9-3.4,16.2-9.2l1.3,8h21.6v-5.9c-9.4-0.9-8.3-7.9-8.4-9.5v-11.6c2.1,16.1,13.2,28.6,29,28.6c10.2,0,19.7-5,25.5-13.3
	l-6.3-5.5c-3.5,6.1-9.9,10-17,10.2c-8.6,0-15.2-6.3-15.8-19.6h40C290.9,242.1,281.4,225.9,262,225.9z M190.7,193.2
	c-4.6,0-10.7-3.1-10.7-11.7c0-7.9,5.2-10.9,10.3-10.9c5.7,0,10.5,3.5,10.5,11.1S196.1,193.2,190.7,193.2z M200.9,166.4
	c-3.1-3.5-7.6-4.9-13.1-5.2c1.1-4.2-2-9.2-7.8-9.7c1-4.5,5.9-7,11.2-7c8.4,0,9.7,6.3,9.7,11.7L200.9,166.4L200.9,166.4z M81.6,275.6
	c0,5.2-2.6,8.9-8.4,8.9s-8.4-3.6-8.4-8.9v-26.7c0-5.8,1.5-13.7,8.7-13.7c4.2,0,8.2,1.7,8.2,13.1L81.6,275.6z M113,275.6
	c0,5.2-2.6,8.9-8.2,8.9c-5.5,0-8.3-3.6-8.3-8.9V244c-0.2-4.6,3.4-8.5,8.1-8.7c0.1,0,0.1,0,0.2,0c4.2,0,8.2,1.7,8.2,13.1
	C113,248.4,113,275.6,113,275.6z M152.6,282.2c-4.6,0-10.7-3.1-10.7-11.7c0-7.9,5.2-10.9,10.3-10.9c5.7,0,10.5,3.5,10.5,11.1
	C162.7,278.2,158,282.2,152.6,282.2L152.6,282.2z M162.8,255.5c-3.1-3.4-7.5-4.9-13.1-5.2c1.1-4.2-2-9.2-7.8-9.7c1-4.5,5.9-7,11.2-7
	c8.4,0,9.7,6.3,9.7,11.7L162.8,255.5z M205.1,283.6c-8.7,0-11.8-9.2-11.8-25.5s3-25.8,11.8-25.8s11.8,9.5,11.8,25.8
	C217,274.3,214,283.6,205.1,283.6L205.1,283.6z M248.9,255.8c0.4-15.1,5.4-22.5,12.6-22.5s12.3,7.7,12.4,22.5H248.9z"/>
</svg>
