<?xml version="1.0" encoding="utf-8"?>
<!-- Generator: Adobe Illustrator 21.1.0, SVG Export Plug-In . SVG Version: 6.00 Build 0)  -->
<svg version="1.1" id="Layer_1" xmlns="http://www.w3.org/2000/svg" xmlns:xlink="http://www.w3.org/1999/xlink" x="0px" y="0px"
	 viewBox="0 0 400 400" style="enable-background:new 0 0 400 400;" xml:space="preserve">
<style type="text/css">
	.st0{fill:#F39F1C;}
</style>
<title>foodshed_logo</title>
<path class="st0" d="M200.7,310.4c-12.7,0-25.4-0.3-38.1,0.1c-6.3,0.2-10.5-2.3-13.4-7.4c-10.9-19.7-27.8-32.2-48.3-40.4
	c-8.2-3.3-8.1-3.2-5.6-12c4.4-15.5,7.8-31.2,7.4-47.4c-0.4-16.4-3.2-32.4-9.8-47.7c-1.3-3.1-1-5.6,3.5-7.2
	c8.4-3.1,16.3-7.8,24.6-11.4c8.8-3.8,13.2-12.2,18.8-18.9c5.6-6.7,8.8-15.5,12.9-23.6c1.8-3.5,4.5-4.9,8.2-4.9
	c26.4-0.1,52.9-0.2,79.4,0.1c2.2,0,5.5,2.4,6.4,4.5c6.6,14.7,16.2,27.1,29.1,36.4c8.6,6.2,18.4,10.7,27.9,15.5c3.9,2,4.6,3.9,3,8
	c-2.9,7.7-6.2,15.5-7.6,23.5c-3.8,22.6-3,45.1,4.6,67c0.7,2.4,1.7,4.7,2.8,6.9c2.6,4.7,0.2,7.4-3.8,8.6c-18.2,5.8-31,19-43.9,32
	c-3.3,3.3-5.5,7.9-7.5,12.3c-2.2,4.7-5.8,6-10.3,6C227.6,310.3,214.2,310.3,200.7,310.4L200.7,310.4z M171.3,212.8
	c-0.1,11.2,1.8,21.7,6.8,32c6.1,12.6,17.9,15.1,28.4,12.8c3.7-0.8,8-3,10.2-5.9c6.5-8.6,10.3-18.9,10.7-29.7
	c0.6-12.5,0.4-25.1,0.1-37.6c-0.3-12.4-6-22.8-13.3-32.4c-5.1-6.7-17.7-9.1-23.6-5c-9.4,6.6-15.6,15.4-16.6,27.2
	C173.2,187.1,172.3,199.9,171.3,212.8z"/>
</svg>
