<?xml version="1.0" encoding="utf-8"?>
<!-- Generator: Adobe Illustrator 22.1.0, SVG Export Plug-In . SVG Version: 6.00 Build 0)  -->
<svg version="1.1" id="Layer_1" xmlns="http://www.w3.org/2000/svg" xmlns:xlink="http://www.w3.org/1999/xlink" x="0px" y="0px"
	 viewBox="0 0 400 400" style="enable-background:new 0 0 400 400;" xml:space="preserve">
<style type="text/css">
	.st0{fill:#F79F1B;}
</style>
<title>PSW_Logo</title>
<g>
	<path class="st0" d="M118.6,151.4c0,0,0.3-0.5-2.8-1.8c-3.1-1.3-8.2,0.4-8.2,0.4C103.4,152.5,84,202,84,202s-5.9,18.4-7.9,22.4
		c-0.2,0.4-1.2-1.5-1.5-2c-3-6-2.7-26.2-2.7-26.2s0.2-5.1,0.2-7c0.1-4.2,1.3-17.2,1.3-17.2l0-3.7c0,0-0.8-3.4-3.1-4.2
		c-3.1-1.2-8.6-0.3-8.6-0.3c-9.4,6.4-27.4,58-29.6,64.7c-0.5,1.5-5,17.7-6.2,23.2c-1.1,5.1-2.1,4.8,4,6.4c3.3,0.9,5.4-1.3,5.4-1.3
		s7.7-29.6,8.1-30.2c0.3-0.6,6.9-19.4,9.6-25.7c2.1-4.9,9.3-20.7,9.3-20.7c-0.6,7.1-0.6,23.7-0.6,23.7c0.4,16.7,3.4,19.4,4.3,20.8
		c1.6,2.2,4.5,4.8,9,5.6c4.5,0.8,5,0.2,6.8-0.6c1.7-0.8,3.6-2.5,4-3.3c0.6-1.1,10.2-29,11-30.8c0.8-1.9,12.5-27.5,13.5-29.3
		C111.3,164.2,118.6,151.4,118.6,151.4z"/>
	<path class="st0" d="M314.8,151.3c0,0,0.6-0.8-0.5-1.8c-1.1-1-2-2.4-6.8-2.8c-0.5,0-0.9,0.2-1.2,0.7c-1.7,3.2-8.4,16.4-9.4,20.4
		c0,0,0,0.1,0,0.1c-0.3,0.8-4.3,11.4-4.3,14.4c0,0-0.4,1.5,0,3.3c0.2,0.8,1,1.2,1.8,0.9c1-0.4,2.2-1.1,2.7-1.6
		c0.8-0.9,1.1-1.1,2-2.9c0.9-1.8,8.1-15.6,8.1-15.6L314.8,151.3z"/>
	<path class="st0" d="M371.8,195.7c-5.5-1.3-35.5,14.8-35.5,14.8c-5.4-8.4-27.3-11.5-27.3-11.5c0.1-0.9,3.7-3.9,16.7-11.1
		c13-7.2,27.9-10.6,28.7-10.7c0.8-0.1,0.8,0.3,0.8,0.3c0.5,2.1,1,3.2,1.5,3.8c0.4,0.5,1.2,0.7,1.8,0.3l4.3-2.4c0.6-0.4,1-1,1-1.8
		c-0.1-1.7-1-4.2-2.7-6.5c-2.1-2.9-4.2-2.8-4.2-2.8c-6.2-1-30.7,8.9-30.7,8.9c-11.6,5-19.8,11.4-22.3,13.9c-2.5,2.5-1.2,5.5-1.2,5.5
		s0.4,1,0.9,3.4c0.4,1.6,1.1,2.8,1.6,3.4c0.2,0.3,0.5,0.5,0.8,0.7c8.5,3.3,10.9,4.2,15.8,5.4c4.1,1,10.2,3.7,10.2,3.7
		c-2.3,0.5-21.2,13.1-21.2,13.1c-3.2,1.5-5.8,4.5-5.8,4.5c-0.8,2.4,1.4,7.8,2.9,9.2c1.5,1.4,2.6,1.1,2.6,1.1
		c8-0.7,18.9-6.5,25.8-11.1c6.9-4.6,4.6-11.4,4.6-11.4c2.4-1.8,33-17.4,33-17.4S377.3,197,371.8,195.7z"/>
	<path class="st0" d="M181.2,183.7c-2.5-2-3.5-3-3.5-3s-0.8-0.9-0.1-1.9c0.3-0.4-2.9-2.1-3.2-2.3c-2.2-1.3-5.8-2.1-7.6-2.2
		c-2,0-5.9-0.1-10.7,0.3c0,0-8.2,0.5-12.6,1.8c0,0,0,0-1.2,0.4c-0.6,0.2-1.5-0.2-2.2-0.8c-0.6-0.5-1.4-1.2-2.1-1.7
		c-1.7-1.2-3.1-2-6.7-2.6c0,0-1.9-0.7-7.6,4.9c0,0-4.6,4-6.1,5.8c-0.4,0.4-0.5,1.1-0.3,1.6c0.1,0.3,0.3,0.6,0.5,1
		c0,0-15.2,18.8-15.8,29.5c0,0-0.6,4,3.4,7.8c4,3.8,7.5,5,7.5,5s7.3,2.1,16.3-8.2c0,0,10.4-11.2,14.7-23.1c0,0,3.4-8.9,1.7-11.8
		c0,0,1.5-0.3,3.6-0.7c0,0,6.2-1,6.5-1c1-0.1,1.4,0.3,1.4,0.3L155,188c0,0-0.4,1.8,1.3,1.7c0.9-0.1,1,0.3,1,0.3s-9,14.7-5.2,21.8
		c0,0,3.7,6.5,11.9,7.4c0,0,5.1,0.1,11.1-6.5c0.5-0.5,0.9-1.1,1.3-1.7c1.7-2.5,6.2-9.6,7.9-14.9
		C186.4,189.4,183.7,185.7,181.2,183.7z M129.8,201.9c-1.9,3-2.5,4.5-4.6,7.1c-8.4,10.2-10.6,10.8-14.1,12.6
		c-0.5,0.3-0.6-1.5-0.6-1.5s-0.7-5.2,3.4-12.1c2.7-4.4,7.3-14.2,11-17.3c0,0,4,1.1,11.2-1.9C136.1,188.9,135.8,192.5,129.8,201.9z
		 M175.5,190.5c-0.4,2.8-1.9,8.7-6.7,14.8c-4.4,5.7-6.7,7.1-7.7,7.4c-0.4,0.1-0.7-0.2-0.7-0.5c-0.1-6.1,3.4-13.9,6.6-20.1
		c2.7-5.2,5.8-8,6.8-8.8c0.2-0.2,0.6-0.1,0.7,0.2c0.3,0.8,0.7,2.6,1,3.9C175.6,188.3,175.6,189.4,175.5,190.5z"/>
	<path class="st0" d="M283.5,178.8c-2.3-1.5-7.5-3.3-8.5-3.3c-0.2,0-0.5,0-0.8,0c-0.2,0-0.4,0.1-0.6,0.1c-0.1,0-0.2,0.2-0.4,0.3
		c-0.4,0.4-0.9,1.1-1.4,1.9c-0.5,0.5-1.3,0.6-1.9,0.2c-2.4-1.7-4.9-3.7-11.6-3.5c-7.8,0.3-11.5,12.2-11.5,12.2
		c-0.4,1.1-1.7,5.3-2.8,8.5c0,0.1-0.1,0.2-0.1,0.2c-3.8,7.7-8.6,13.9-13.6,15.2c-0.5,0.1-0.6-0.2-0.6-0.2
		c-1.9-5.8,5.7-23.5,6.4-26.1c0.7-2.6-0.5-5.3-2.8-6.6c-0.4-0.2-0.7-0.4-1-0.6c-0.7-0.3-1.4-0.6-2.2-0.6c-3.1-0.3-6.1,0.5-6.1,0.5
		c-12.8,3-17.6,11.4-17.6,11.4l0.2-0.7c0.2-0.7,0.1-1.4-0.3-2c-1.8-2.5-4.1-2.9-5.5-2.9c-0.8,0-1.6,0.5-1.9,1.3
		c-1.7,3.7-6.9,15.6-7.3,16.7c-0.7,1.9-2.2,5.4-3.8,9l-0.1,0c-1.4,3.3-2.7,6.2-3,7.5c-0.8,2.9-0.8,3.2,0.9,3.9
		c2.2,0.9,5.5,0.6,5.5,0.6c0.4,0,1.3-0.1,2.4-2.1c0.9-1.7,1.9-3.6,3-5.6c5.3-9.5,13-21.4,24.9-28.3c0.6-0.3,1-0.6,1.5-0.7
		c0,0,0,0,0,0c0.9-0.3,1.9,0.3,2.1,1.2c0.1,0.3,0,0.7-0.2,1.1l-0.7,1.7c-1.5,3.7-2.7,8.8-3.2,11.3c0,0,0,0.1,0,0.1
		c-0.1,1-0.2,2-0.3,3c0,0.1,0,0.2,0,0.2c0.1,6.2,3.7,8.5,3.7,8.5c1.5,1.3,4.2,2.8,5.8,3.4c1.6,0.6,3,1,7.6-0.3
		c2.4-0.7,5-3.7,7.1-6.2c0.1,0.2,0.2,0.4,0.4,0.6c4.4,4.5,9.5,5.1,10.8,5.2c0.2,0,0.4,0,0.6,0c3.9-0.8,6.2-2.5,7.2-3.6
		c0.1-0.1,0.2-0.2,0.3-0.3l0.2,0c-0.3,0.8-0.7,2.4-1.2,4.4c0,0,0,0.1,0,0.2c-0.3,2.1-0.5,3.9-0.4,4.9c0,0,0,0,0,0
		c0.4,3.7,2,4.8,5.2,5.8c2.1,0.7,3.5,0.3,4.2,0c0.3-0.1,0.4-0.5,0.2-0.7l-0.3-0.6c-0.2-0.3-0.3-0.5-0.4-1c-0.5-2.3-0.3-4.7-0.1-6.4
		c0-0.1,0-0.1,0-0.2c2-8.1,5.3-17.9,5.3-17.9c2-5.9,4.2-11.5,5.9-15.8c1-2.3,1.6-3.6,1.6-3.6c0.1-0.2,0.1-0.3,0.1-0.5c0,0,0,0,0,0
		l0,0C284.2,179.1,283.5,178.8,283.5,178.8z M261.7,197.6c-2.6,6.1-6.5,9.6-8.4,11c-0.5,0.4-1.3,0.1-1.4-0.6c-0.5-4.7,2-13,4.9-19.9
		c1.2-2.8,2.4-4.8,3.4-6.3c1.4-2,4.5-1.6,5.2,0.7c0,0,0,0.1,0,0.1C266.2,185.1,265.2,189.2,261.7,197.6z"/>
</g>
</svg>
