<?xml version="1.0" encoding="utf-8"?>
<!-- Generator: Adobe Illustrator 21.1.0, SVG Export Plug-In . SVG Version: 6.00 Build 0)  -->
<svg version="1.1" id="Layer_1" xmlns="http://www.w3.org/2000/svg" xmlns:xlink="http://www.w3.org/1999/xlink" x="0px" y="0px"
	 viewBox="0 0 400 400" style="enable-background:new 0 0 400 400;" xml:space="preserve">
<style type="text/css">
	.st0{fill:#F79F1B;}
</style>
<g>
	<g>
		<g>
			<path class="st0" d="M83.7,237.7L94.8,264l11.7-24.6h7.3l-19.5,40.7l-10.6-25.3l-10.6,25l-19.4-40.4H61l11.8,24.4L83.7,237.7z"/>
			<path class="st0" d="M118.5,216.7h8.4v29.2c2.3-2.7,4.5-4.6,6.5-5.8c2-1.2,4.4-1.8,7.3-1.8c3.4,0,6.3,1.3,8.7,3.9
				c2.4,2.6,3.7,5.7,3.7,9.2V279h-8.4v-25.3c0-2.5-0.6-4.5-1.9-6c-1.3-1.5-2.9-2.3-5-2.3c-3,0-5.6,1.1-7.7,3.4
				c-2.1,2.3-3.2,5-3.2,8.3V279h-8.4V216.7z"/>
			<path class="st0" d="M160.2,226.4c0-1.7,0.6-3.2,1.9-4.5c1.3-1.3,2.8-1.9,4.6-1.9c1.7,0,3.2,0.6,4.5,1.9c1.3,1.3,1.9,2.8,1.9,4.5
				c0,1.8-0.6,3.3-1.9,4.5c-1.3,1.2-2.8,1.9-4.5,1.9c-1.8,0-3.3-0.6-4.6-1.9S160.2,228.2,160.2,226.4z M162.6,239.4h8.3V279h-8.3
				V239.4z"/>
			<path class="st0" d="M183.4,227.9h8.4v11.5h8.3v7.6h-8.3v32h-8.4v-32h-6.6v-7.7h6.6V227.9z"/>
			<path class="st0" d="M244.1,260.8h-33.8c0.7,4.1,2.4,7,5,8.9c2.6,1.9,5.5,2.8,8.5,2.8c4.7,0,8.7-2,11.9-5.9l6.1,4.6
				c-4.6,5.9-10.7,8.9-18.4,8.9c-5.9,0-10.8-2-14.8-6.1c-4-4-6-9-6-15c0-5.6,2-10.5,6-14.6c4-4.1,8.9-6.2,14.7-6.2
				c5.7,0,10.6,2.1,14.6,6.3C242.1,248.8,244.1,254.2,244.1,260.8z M211.1,254.2h24.2c-2.7-5.4-6.7-8.2-11.9-8.2
				C217.7,246,213.6,248.7,211.1,254.2z"/>
			<path class="st0" d="M252.1,216.7h8.3v30.6c3.6-6,8.6-8.9,15.3-8.9c5.1,0,9.6,2.1,13.3,6.1c3.8,4.1,5.6,9,5.6,14.6
				c0,5.6-1.9,10.6-5.5,14.8c-3.7,4.2-8,6.3-12.9,6.3c-3.2,0-6.2-0.8-9-2.5c-2.9-1.7-5.1-4-6.7-6.9v8.4h-8.3V216.7z M285.7,259.1
				c0-3.6-1.3-6.7-3.9-9.3c-2.6-2.6-5.7-3.9-9.4-3.9c-3.6,0-6.6,1.3-9.2,3.9c-2.6,2.6-3.9,5.7-3.9,9.2c0,3.7,1.3,6.8,3.9,9.4
				c2.6,2.5,5.8,3.8,9.6,3.8c3.5,0,6.6-1.3,9.1-3.9C284.5,265.8,285.7,262.7,285.7,259.1z"/>
			<path class="st0" d="M299.9,259.1c0-5.4,2.1-10.2,6.4-14.4c4.3-4.2,9.2-6.3,14.7-6.3c5.7,0,10.7,2.1,14.9,6.2
				c4.3,4.1,6.4,9,6.4,14.5c0,5.6-2.1,10.5-6.3,14.7c-4.2,4.2-9,6.4-14.5,6.4c-5.9,0-10.9-2.1-15.3-6.3
				C302,269.7,299.9,264.7,299.9,259.1z M334.3,259.1c0-3.4-1.3-6.3-3.8-8.8c-2.6-2.5-5.6-3.7-9.1-3.7c-3.6,0-6.7,1.3-9.3,3.8
				c-2.6,2.5-3.9,5.5-3.9,9c0,3.3,1.3,6.3,4,8.8c2.6,2.5,5.7,3.8,9.3,3.8c3.5,0,6.5-1.3,9.1-3.8C333,265.5,334.3,262.5,334.3,259.1z
				"/>
			<path class="st0" d="M344.5,239.4h10.1l8.8,11.3l8.6-11.3h10.1l-13.8,17.9L385,279h-10l-11.7-15.2L351.5,279h-9.9l16.7-21.8
				L344.5,239.4z"/>
		</g>
	</g>
	<polygon id="Logo_1_" class="st0" points="87.9,189.9 21.1,147.5 78.7,120.2 15.6,146.1 33.1,228.7 20,150.5 	"/>
</g>
</svg>
