<?xml version="1.0" encoding="utf-8"?>
<!-- Generator: Adobe Illustrator 21.1.0, SVG Export Plug-In . SVG Version: 6.00 Build 0)  -->
<svg version="1.1" id="Layer_1" xmlns="http://www.w3.org/2000/svg" xmlns:xlink="http://www.w3.org/1999/xlink" x="0px" y="0px"
	 viewBox="0 0 69.3 67.6" style="enable-background:new 0 0 69.3 67.6;" xml:space="preserve">
<style type="text/css">
	.st0{fill:#FF9F1C;}
</style>
<title>onion-Asset 1</title>
<g>
	<g>
		<path class="st0" d="M64,31.4l1.2,2.7c4.1,9.1-2.7,23.3-14.2,28.5c-0.8,0.3-1.1,1.1-0.9,1.9c0.3,0.8,1.1,1.1,1.9,0.9
			c0.1,0,0.1-0.1,0.2-0.1c12.9-5.8,20.4-21.6,15.7-32.3l-1.2-2.7l-1.8-4c-0.3-0.8-1.1-1.1-1.9-0.9s-1.1,1.1-0.9,1.9
			c0,0.1,0.1,0.1,0.1,0.2L64,31.4z"/>
		<path class="st0" d="M16.6,53l1,2.2c4.8,10.7,21.6,15.7,34.5,10c0.7-0.3,1.1-1.2,0.8-1.9s-1.2-1.1-1.9-0.8
			c-11.5,5.1-26.6,0.6-30.7-8.5l-1-2.2l-2-4.4c-0.4-0.7-1.3-1-2-0.6c-0.6,0.3-0.9,1.1-0.7,1.8L16.6,53z"/>
		<path class="st0" d="M52.2,65.2c0.7-0.4,1-1.3,0.6-2c-0.3-0.6-1.1-0.9-1.7-0.7c-8.1,3.6-17.3-2.3-22.1-10.8
			c-0.4-0.7-1.3-0.9-2-0.4c-0.6,0.4-0.8,1.2-0.5,1.8C31.7,62.8,42.4,69.6,52.2,65.2z"/>
		<path class="st0" d="M52.2,65.2c0.7-0.4,1-1.3,0.6-2c-0.3-0.6-1.1-0.9-1.7-0.7c-3.3,1.5-9.7-4.8-13.3-12.2c-0.4-0.7-1.2-1.1-2-0.7
			s-1.1,1.2-0.7,2C39.3,60.4,46.7,67.7,52.2,65.2z"/>
		<path class="st0" d="M51,62.6c-0.8,0.3-1.1,1.1-0.9,1.9c0.3,0.8,1.1,1.1,1.9,0.9c0.1,0,0.1-0.1,0.2-0.1c5.4-2.4,5-12.6,1.4-21.7
			c-0.2-0.8-1-1.2-1.8-1s-1.2,1-1,1.8c0,0.1,0.1,0.2,0.1,0.2C53.9,52.3,54.3,61.1,51,62.6z"/>
		<path class="st0" d="M51,62.6c-0.8,0.3-1.1,1.1-0.9,1.9c0.3,0.8,1.1,1.1,1.9,0.9c0.1,0,0.1-0.1,0.2-0.1C61.7,60.9,64,49,60.7,38.4
			c-0.3-0.7-1.1-1.1-1.9-0.8c-0.7,0.3-1,1-0.9,1.7C60.8,48.6,58.9,59,51,62.6z"/>
		<path class="st0" d="M64.9,26.3c-3-6.9-16.6-6.9-30.4-0.7S11.6,41.8,14.7,48.7s16.6,6.8,30.4,0.7S67.9,33.2,64.9,26.3z M17.3,47.5
			c-2.1-4.8,5.9-13.7,18.3-19.2s24.4-5.6,26.6-0.8s-5.8,13.7-18.3,19.2S19.5,52.3,17.3,47.5z"/>
		<path class="st0" d="M57,29.8c-1.8-4-10.6-3.2-20.1,1S20.9,41,22.6,45.1s10.6,3.2,20.1-1S58.8,33.9,57,29.8z M30.1,44.8
			c-2.8,0.3-4.6-0.2-4.9-0.8s0.5-2.2,2.6-4.2c3-2.6,6.4-4.7,10.1-6.3c3.6-1.7,7.5-2.8,11.5-3.3c2.8-0.3,4.5,0.2,4.8,0.8
			s-0.5,2.2-2.6,4.1c-3,2.6-6.5,4.7-10.1,6.3C37.9,43.1,34.1,44.2,30.1,44.8z"/>
		<ellipse transform="matrix(0.9135 -0.4067 0.4067 0.9135 -11.7989 19.4234)" class="st0" cx="39.8" cy="37.5" rx="4.3" ry="1.5"/>
		<path class="st0" d="M37.2,15.9c0.1,0.1,3.1,1.9,4,2.4c2.2,1.3,4.3,3,6,4.9c0.6,0.6,1.5,0.6,2.1,0c0.5-0.5,0.6-1.4,0.1-1.9
			c-2-2.1-4.2-3.9-6.7-5.4c-0.9-0.6-3.9-2.4-4-2.4c-5.1-3.1-6.9-5.3-6.9-9.1C31.7,3.5,31,2.9,30.2,3c-0.7,0.1-1.3,0.6-1.3,1.3
			C28.9,9.4,31.4,12.3,37.2,15.9z"/>
		<path class="st0" d="M14.9,13.6l-2.7,1.9C3.8,21.4,0,27,0,37.6C0,48.4,8.6,58,21.5,60.2c0.8,0.2,1.6-0.3,1.7-1.1
			c0.2-0.8-0.3-1.6-1.1-1.7c0,0-0.1,0-0.1,0c-11.6-2-19.1-10.5-19.1-19.8c0-9.5,3.2-14.3,11-19.7l2.7-1.9C23.3,11.4,26,7.9,26,1.5
			c-0.1-0.8-0.8-1.4-1.6-1.3c-0.7,0.1-1.3,0.6-1.3,1.3C23.1,6.7,21,9.5,14.9,13.6z"/>
		<path class="st0" d="M8.7,37.6c0,6.9,3.9,16.3,10.1,20.5c0.7,0.4,1.6,0.2,2-0.5c0.4-0.6,0.2-1.4-0.4-1.9c-5.3-3.6-8.8-12-8.8-18.1
			c0-7.9,1.7-12.5,5.1-16.5c0.5-0.6,0.4-1.5-0.2-2c-0.6-0.5-1.5-0.4-2,0.1C10.6,23.7,8.7,29,8.7,37.6z"/>
		<path class="st0" d="M22.5,17.9l-0.7,1.5c-2.9,6-4.1,10.5-4.4,18.4c-0.1,0.8,0.5,1.5,1.3,1.6c0.8,0.1,1.5-0.5,1.6-1.3
			c0-0.1,0-0.1,0-0.2c0.3-7.5,1.4-11.6,4.1-17.3l0.7-1.5c0.9-1.7,1.6-3.4,2.2-5.2c0.3-0.7-0.1-1.6-0.8-1.9c-0.7-0.3-1.6,0.1-1.9,0.8
			c0,0.1,0,0.1-0.1,0.2C24,14.7,23.3,16.3,22.5,17.9z"/>
		<path class="st0" d="M29.8,19.1l0.7,1.5c1.1,2.2,2,4.4,2.6,6.7c0.2,0.8,1,1.2,1.8,1c0.8-0.2,1.2-1,1-1.8c-0.7-2.5-1.7-4.9-2.8-7.2
			l-0.7-1.5L32,17c-0.4-0.7-1.3-1-2-0.6c-0.6,0.4-0.9,1.1-0.7,1.8L29.8,19.1z"/>
		<path class="st0" d="M40.7,25c0.4,0.7,1.3,0.9,2,0.4c0.6-0.4,0.8-1.2,0.5-1.8c-0.9-1.6-2-3.1-3.2-4.4c-0.6-0.6-1.5-0.6-2.1-0.1
			c-0.6,0.6-0.6,1.5-0.1,2.1l0,0C39,22.3,39.9,23.6,40.7,25z"/>
		<path class="st0" d="M29.7,5.6c0.7,0.4,1.6,0,2-0.7c0.4-0.7,0-1.6-0.7-2l-5.8-2.8c-0.7-0.3-1.6,0-1.9,0.8c-0.3,0.7,0,1.4,0.6,1.8
			L29.7,5.6z"/>
	</g>
</g>
</svg>
