<?xml version="1.0" encoding="utf-8"?>
<!-- Generator: Adobe Illustrator 22.1.0, SVG Export Plug-In . SVG Version: 6.00 Build 0)  -->
<svg version="1.1" id="Layer_1" xmlns="http://www.w3.org/2000/svg" xmlns:xlink="http://www.w3.org/1999/xlink" x="0px" y="0px"
	 viewBox="0 0 400 400" style="enable-background:new 0 0 400 400;" xml:space="preserve">
<style type="text/css">
	.st0{fill:#FF9F1C;}
</style>
<title>onion-Asset 1</title>
<g>
	<path class="st0" d="M214.4,159.2l-4.5-1.7l15.8-55.9c0.9-3.2,4.5-5.3,7.7-4.3c1.7,0.4,3,1.5,3.8,3c0.9,1.5,1.1,3,0.6,4.7
		l-13.7,59.7v0.4l-0.4,1.5C221.2,163.2,218.2,160.9,214.4,159.2 M190.9,150c-0.9-0.2-1.7-0.2-2.6,0c-0.9,0.4-1.5,1.1-1.7,1.7
		c-0.2,0.4-0.2,0.9-0.4,1.1c-0.9-2.1-2.3-3.8-4.1-5.3l-8.7-49.9c-0.4-1.9,0-3.8,1.3-5.5c1.1-1.7,2.8-2.8,4.7-3
		c1.9-0.4,3.8,0,5.5,1.3c1.7,1.1,2.8,2.8,3,4.7l10.7,58L190.9,150z M180.9,191c0,4.1-3.2,7.3-7.3,7.3c-4.1,0-7.2-3.2-7.2-7.3v-24.7
		v-8.1c0-4.1,3.2-7.3,7.2-7.3c4.1,0,7.3,3.2,7.3,7.3V191z M159.8,199.1c0,4.1-3.2,7.3-7.3,7.3c-3.8,0-7-3-7.3-6.6v-0.6v-0.6v-32.2
		c0-4.1,3.2-7.3,7.3-7.3c4.1,0,7.3,3.2,7.3,7.3V191V199.1z M230.4,165.8l13.7-59.5c0.9-3.2,0.4-6.6-1.3-9.4c-1.7-3-4.5-5.1-7.7-6
		c-6.8-1.7-13.7,2.1-15.6,8.7L205,151.3l-10.7-57.6c-0.6-3.6-2.6-6.8-5.8-9c-3-2.1-6.6-3-10.2-2.3c-3.6,0.6-6.8,2.6-9,5.8
		c-2.1,3-3,6.6-2.3,10.2l8.1,45.9h-1.7c-6.4,0-11.9,4.5-13.2,10.5c-2.1-1.5-4.9-2.3-7.7-2.3c-7.7,0-13.7,6.2-13.7,13.7v32.8v1.3v1.3
		c0,27.7,4.7,39.7,8.1,48.4c1.9,4.9,3.4,8.5,3.4,13.6c0,1.7,1.5,3.2,3.2,3.2s3.2-1.5,3.2-3.2c0-6.4-1.7-10.9-3.8-16
		c-2.8-7.3-6.6-16.8-7.5-36.7c2.1,1.3,4.5,1.9,7,1.9c6.4,0,11.9-4.5,13.2-10.4c2.1,1.5,4.9,2.3,7.7,2.3c7.7,0,13.7-6.2,13.7-13.7
		v-18.1c3.8,5.5,10.4,8.5,16.4,11.1l4.7,14.7c-16,3.2-22.6,24.1-22.8,25c-0.4,1.7,0.4,3.4,2.1,4.1c1.7,0.4,3.4-0.4,4.1-2.1
		c0-0.2,6.4-20.9,20.9-20.9c1.1,0,1.9-0.4,2.6-1.3c0.6-0.9,0.9-1.9,0.4-2.8l-6.4-19.8c-0.2-0.9-0.9-1.7-1.7-1.9
		c-13-5.8-19.2-10-15.8-21.8l20.5,8.1c3,1.3,5.3,3,7.3,6l9.4,20.5c1.1,3.6,1.1,5.1,1.1,9.4v0.4c-0.6,22.8-6,34.8-10.2,44.4
		c-2.8,6.2-5.1,11.5-5.1,17.9c0,1.7,1.5,3.2,3.2,3.2c1.7,0,3.2-1.5,3.2-3.2c0-5.1,1.9-9.4,4.5-15.4c4.3-9.6,10-22.6,10.9-46.7V201
		c0-4.7,0-6.8-1.5-11.5c0-0.2,0-0.2-0.2-0.4l-5.3-11.7v-0.2L230.4,165.8z"/>
</g>
</svg>
