<?xml version="1.0" encoding="utf-8"?>
<!-- Generator: Adobe Illustrator 21.1.0, SVG Export Plug-In . SVG Version: 6.00 Build 0)  -->
<svg version="1.1" id="Layer_1" xmlns="http://www.w3.org/2000/svg" xmlns:xlink="http://www.w3.org/1999/xlink" x="0px" y="0px"
	 viewBox="0 0 400 400" style="enable-background:new 0 0 400 400;" xml:space="preserve">
<style type="text/css">
	.st0{fill:#FF9F1C;}
</style>
<title>onion-Asset 1</title>
<g>
	<g>
		<path class="st0" d="M281.6,202.5l3.1,7c10.7,23.7-7,60.8-37,74.3c-2.1,0.8-2.9,2.9-2.3,5c0.8,2.1,2.9,2.9,5,2.3
			c0.3,0,0.3-0.3,0.5-0.3c33.6-15.1,53.2-56.3,40.9-84.2l-3.1-7l-4.7-10.4c-0.8-2.1-2.9-2.9-5-2.3c-2.1,0.5-2.9,2.9-2.3,5
			c0,0.3,0.3,0.3,0.3,0.5L281.6,202.5z"/>
		<path class="st0" d="M157.9,258.9l2.6,5.7c12.5,27.9,56.3,40.9,90,26.1c1.8-0.8,2.9-3.1,2.1-5c-0.8-1.8-3.1-2.9-5-2.1
			c-30,13.3-69.4,1.6-80.1-22.2l-2.6-5.7l-5.2-11.5c-1-1.8-3.4-2.6-5.2-1.6c-1.6,0.8-2.3,2.9-1.8,4.7L157.9,258.9z"/>
		<path class="st0" d="M250.8,290.7c1.8-1,2.6-3.4,1.6-5.2c-0.8-1.6-2.9-2.3-4.4-1.8c-21.1,9.4-45.1-6-57.6-28.2
			c-1-1.8-3.4-2.3-5.2-1c-1.6,1-2.1,3.1-1.3,4.7C197.3,284.4,225.2,302.2,250.8,290.7z"/>
		<path class="st0" d="M250.8,290.7c1.8-1,2.6-3.4,1.6-5.2c-0.8-1.6-2.9-2.3-4.4-1.8c-8.6,3.9-25.3-12.5-34.7-31.8
			c-1-1.8-3.1-2.9-5.2-1.8s-2.9,3.1-1.8,5.2C217.1,278.2,236.4,297.2,250.8,290.7z"/>
		<path class="st0" d="M247.7,283.9c-2.1,0.8-2.9,2.9-2.3,5c0.8,2.1,2.9,2.9,5,2.3c0.3,0,0.3-0.3,0.5-0.3c14.1-6.3,13-32.9,3.7-56.6
			c-0.5-2.1-2.6-3.1-4.7-2.6c-2.1,0.5-3.1,2.6-2.6,4.7c0,0.3,0.3,0.5,0.3,0.5C255.2,257,256.3,280,247.7,283.9z"/>
		<path class="st0" d="M247.7,283.9c-2.1,0.8-2.9,2.9-2.3,5c0.8,2.1,2.9,2.9,5,2.3c0.3,0,0.3-0.3,0.5-0.3
			c24.8-11.5,30.8-42.5,22.2-70.2c-0.8-1.8-2.9-2.9-5-2.1c-1.8,0.8-2.6,2.6-2.3,4.4C273.2,247.4,268.3,274.5,247.7,283.9z"/>
		<path class="st0" d="M283.9,189.2c-7.8-18-43.3-18-79.3-1.8s-59.7,42.3-51.6,60.2c8.1,18,43.3,17.7,79.3,1.8
			S291.7,207.2,283.9,189.2z M159.8,244.5c-5.5-12.5,15.4-35.7,47.7-50.1c32.3-14.3,63.6-14.6,69.4-2.1
			c5.7,12.5-15.1,35.7-47.7,50.1C196.5,256.8,165.5,257,159.8,244.5z"/>
		<path class="st0" d="M263.3,198.4c-4.7-10.4-27.6-8.3-52.4,2.6c-24.8,11-41.7,26.6-37.3,37.3s27.6,8.3,52.4-2.6
			S268,209.1,263.3,198.4z M193.2,237.5c-7.3,0.8-12-0.5-12.8-2.1c-0.8-1.6,1.3-5.7,6.8-11c7.8-6.8,16.7-12.3,26.3-16.4
			c9.4-4.4,19.6-7.3,30-8.6c7.3-0.8,11.7,0.5,12.5,2.1c0.8,1.6-1.3,5.7-6.8,10.7c-7.8,6.8-17,12.3-26.3,16.4
			C213.5,233,203.6,235.9,193.2,237.5z"/>
		
			<ellipse transform="matrix(0.9136 -0.4067 0.4067 0.9136 -69.9498 107.7419)" class="st0" cx="218.5" cy="218.4" rx="11.2" ry="3.9"/>
		<path class="st0" d="M211.7,162.1c0.3,0.3,8.1,5,10.4,6.3c5.7,3.4,11.2,7.8,15.6,12.8c1.6,1.6,3.9,1.6,5.5,0
			c1.3-1.3,1.6-3.7,0.3-5c-5.2-5.5-11-10.2-17.5-14.1c-2.3-1.6-10.2-6.3-10.4-6.3c-13.3-8.1-18-13.8-18-23.7
			c-0.3-2.3-2.1-3.9-4.2-3.7c-1.8,0.3-3.4,1.6-3.4,3.4C190,145.2,196.5,152.7,211.7,162.1z"/>
		<path class="st0" d="M153.5,156.1l-7,5c-21.9,15.4-31.8,30-31.8,57.6c0,28.2,22.4,53.2,56.1,58.9c2.1,0.5,4.2-0.8,4.4-2.9
			c0.5-2.1-0.8-4.2-2.9-4.4H172c-30.3-5.2-49.8-27.4-49.8-51.6c0-24.8,8.3-37.3,28.7-51.4l7-5c17.5-12,24.5-21.1,24.5-37.8
			c-0.3-2.1-2.1-3.7-4.2-3.4c-1.8,0.3-3.4,1.6-3.4,3.4C174.9,138.1,169.4,145.4,153.5,156.1z"/>
		<path class="st0" d="M137.3,218.7c0,18,10.2,42.5,26.3,53.5c1.8,1,4.2,0.5,5.2-1.3c1-1.6,0.5-3.7-1-5c-13.8-9.4-23-31.3-23-47.2
			c0-20.6,4.4-32.6,13.3-43c1.3-1.6,1-3.9-0.5-5.2s-3.9-1-5.2,0.3C142.3,182.4,137.3,196.3,137.3,218.7z"/>
		<path class="st0" d="M173.3,167.3l-1.8,3.9c-7.6,15.6-10.7,27.4-11.5,48c-0.3,2.1,1.3,3.9,3.4,4.2c2.1,0.3,3.9-1.3,4.2-3.4
			c0-0.3,0-0.3,0-0.5c0.8-19.6,3.7-30.3,10.7-45.1l1.8-3.9c2.3-4.4,4.2-8.9,5.7-13.6c0.8-1.8-0.3-4.2-2.1-5c-1.8-0.8-4.2,0.3-5,2.1
			c0,0.3,0,0.3-0.3,0.5C177.2,159,175.4,163.1,173.3,167.3z"/>
		<path class="st0" d="M192.4,170.5l1.8,3.9c2.9,5.7,5.2,11.5,6.8,17.5c0.5,2.1,2.6,3.1,4.7,2.6c2.1-0.5,3.1-2.6,2.6-4.7
			c-1.8-6.5-4.4-12.8-7.3-18.8l-1.8-3.9l-1-2.1c-1-1.8-3.4-2.6-5.2-1.6c-1.6,1-2.3,2.9-1.8,4.7L192.4,170.5z"/>
		<path class="st0" d="M220.8,185.8c1,1.8,3.4,2.3,5.2,1c1.6-1,2.1-3.1,1.3-4.7c-2.3-4.2-5.2-8.1-8.3-11.5c-1.6-1.6-3.9-1.6-5.5-0.3
			c-1.6,1.6-1.6,3.9-0.3,5.5l0,0C216.4,178.8,218.7,182.2,220.8,185.8z"/>
		<path class="st0" d="M192.1,135.2c1.8,1,4.2,0,5.2-1.8s0-4.2-1.8-5.2l-15.1-7.3c-1.8-0.8-4.2,0-5,2.1c-0.8,1.8,0,3.7,1.6,4.7
			L192.1,135.2z"/>
	</g>
</g>
</svg>
