<?xml version="1.0" encoding="utf-8"?>
<!-- Generator: Adobe Illustrator 23.0.1, SVG Export Plug-In . SVG Version: 6.00 Build 0)  -->
<svg version="1.1" id="Layer_1" xmlns="http://www.w3.org/2000/svg" xmlns:xlink="http://www.w3.org/1999/xlink" x="0px" y="0px"
	 viewBox="0 0 1184 184" style="enable-background:new 0 0 1184 184;" xml:space="preserve">
<style type="text/css">
	.st0{fill:#FF9F1C;}
</style>
<title>push-oftenAsset 1</title>
<path class="st0" d="M61.4,11.2c20.6,0,35.2,3.3,44.6,10c9.4,6.5,14.2,16.4,14.2,29.4c0,14.2-5.1,25.8-15,34.4S81.1,97.8,63.4,97.8
	c-3.8-0.1-7.7-0.4-11.5-1h-0.1c-0.2,0-0.5,0.1-0.7,0.2c-0.2,0.2-0.3,0.5-0.3,0.8v42.8c0,0.4,0.2,0.8,0.6,0.9l25.8,10.9H2l14.8-10.8
	c0.3-0.2,0.4-0.5,0.4-0.8v-117c0-0.3-0.2-0.6-0.4-0.8L2,12.4c3.5-0.1,11.5-0.3,23.9-0.6C42.4,11.4,54,11.2,61.4,11.2 M58.6,88.4
	c17,0,27.2-13.4,27.2-35.8c0-13-3.8-22.9-10.4-27.2c-5.7-4-11-5.2-23.6-5.2c-0.6,0-1,0.4-1,1V87c0,0.5,0.4,1,0.9,1
	C53.1,88.1,56.4,88.4,58.6,88.4 M61.4,10.2c-7.4,0-19.2,0.2-35.6,0.6S0.8,11.4,0,11.4v0.8l16.2,11.6v117L0,152.6v0.8h79.8v-1
	l-28-11.8V97.8c3.8,0.6,7.7,0.9,11.6,1c18.2,0,32.2-4.4,42.4-13c10.2-8.8,15.4-20.6,15.4-35.2c0-13.4-5-23.6-14.6-30.2
	C96.8,13.4,82,10.2,61.4,10.2L61.4,10.2z M58.6,87.4c-1.8,0-4.6-0.2-6.8-0.4V21.2c12.6,0,17.6,1.2,23,5c6.4,4.2,10,13.8,10,26.4
	C84.8,74.4,75.2,87.4,58.6,87.4z"/>
<path class="st0" d="M229.8,45.1L229.8,45.1V139c0,0.3,0.1,0.6,0.4,0.8l11.4,8.8l-43.1,5.1l-0.2-0.3V132c0-0.5-0.3-0.9-0.8-1h-0.2
	c-0.4,0-0.7,0.2-0.9,0.6c-7.1,14.4-18.1,22.4-30.9,22.4c-8.1,0-15.1-2.7-20.3-7.9s-7.9-13.2-7.9-22.9V63.8c0-0.3-0.2-0.6-0.4-0.8
	l-12.2-8.7l44.2-9.2l0,0v75.1c0,5.5,1.4,9.5,4.7,12.7c2.7,2.5,6.2,3.9,9.9,3.7c5.1,0,10.4-3.1,14.6-8.6c0.1-0.2,0.2-0.4,0.2-0.6
	V63.8c0-0.3-0.2-0.6-0.4-0.8l-12.2-8.7L229.8,45.1 M230,44l-46,9.6v0.8l13.2,9.4v63.6c-3.8,5-8.8,8.2-13.8,8.2
	c-3.4,0.1-6.7-1.1-9.2-3.4c-3-3-4.4-6.6-4.4-12V44.6L169,44l-46,9.6v0.8l13.2,9.4v59.4c0,9.8,2.8,18.2,8.2,23.6s12.8,8.2,21,8.2
	c13.4,0,24.6-8.4,31.8-23v21.8l0.8,1l45.4-5.4v-0.6l-12.6-9.8V44.6L230,44z"/>
<path class="st0" d="M293.4,45.4c8.1,0,18.5,1.5,29.3,4.2c0.9,7.8,1.5,16.4,2.1,30l-1,0.2c-8.6-8.6-17.5-17.8-26.6-27.4
	c-0.1-0.1-0.3-0.2-0.5-0.3c-1.2-0.4-2.4-0.6-3.7-0.7c-9.4,0-16,5.8-16,14c0,7.2,4.7,11.6,20,18.7c12.1,5.5,21,11.3,25.6,16.7
	s6.8,11.7,6.8,19.3c0,11.9-5.2,21.8-14.5,28c-6.7,4.4-16.1,6.8-26.5,6.8c-6.2-0.1-12.3-0.6-18.4-1.6c-5-0.7-9.9-1.9-14.6-3.5
	c-1.3-10.7-2-21.5-2.1-32.3l1-0.3c9.1,10.8,18.9,21,29.3,30.6c0.2,0.1,0.3,0.2,0.5,0.2l1.4,0.2c1.4,0.2,2.8,0.4,4.2,0.4
	c7.5,0,13.6-5.8,13.6-13c0-10.9-7.5-16.2-21.4-22.1c-22-9.5-29.8-18.3-29.8-33.7c-0.2-9.5,4-18.6,11.5-24.7
	C271,48.8,281.1,45.3,293.4,45.4 M293.4,44.3c-12.6,0-22.8,3.4-30.6,10.2c-7.6,6.2-12,15.6-11.8,25.5c0,15.8,8.2,25,30.4,34.6
	c15,6.4,20.8,11.6,20.8,21.2c0,6.6-5.6,12-12.6,12c-1.8-0.1-3.6-0.3-5.4-0.6c-10.5-9.7-20.4-20.1-29.6-31l-2.4,0.6
	c0.1,11.3,0.8,22.6,2.2,33.8c5,1.8,10.2,3.1,15.4,3.8c6.2,1,12.4,1.5,18.6,1.6c10.4,0,20-2.4,27-7c9.8-6.4,15-16.6,15-28.8
	c0-8-2.4-14.6-7-20s-13.2-11.2-26-17c-15-7-19.4-11.2-19.4-17.8c0-8,6.4-13,15-13c1.2,0.1,2.3,0.3,3.4,0.6
	c10.4,11,19.6,20.4,27,27.8l2.4-0.4c-0.6-13.4-1.2-22.8-2.2-31.6C313.4,46.2,302.4,44.4,293.4,44.3L293.4,44.3z"/>
<path class="st0" d="M381.2,1.1v66.3c0,0.5,0.3,0.9,0.8,1c0.1,0,0.1,0,0.2,0c0.4,0,0.7-0.2,0.9-0.6c7-14.7,17.8-22.8,30.5-22.8
	c7.7-0.2,15.1,2.7,20.7,7.9c5.2,5.2,7.9,13.1,7.9,23.1v66.2c0,0.3,0.1,0.6,0.4,0.8l12,9.4h-54.9l10.6-8.8c0.2-0.2,0.4-0.5,0.4-0.8
	V79c0-5.8-1.5-10-4.7-12.7c-2.7-2.5-6.2-3.8-9.9-3.7c-5.3,0-10.7,3.2-14.6,8.8c-0.1,0.2-0.2,0.4-0.2,0.6v70.8c0,0.3,0.1,0.6,0.4,0.8
	l10.6,8.8h-54.8l11.8-9.4c0.2-0.2,0.4-0.5,0.4-0.8V21.6c0-0.3-0.2-0.6-0.4-0.8L337.1,12L381.2,1.1 M381.6,0L336,11.2v1.2l12.6,9.2
	v120.6l-13,10.4v0.8H394v-0.8l-11.8-9.8V72c3.8-5.4,8.8-8.4,13.8-8.4c3.4-0.1,6.7,1.1,9.2,3.4c3,2.6,4.4,6.6,4.4,12v63.8l-11.8,9.8
	v0.8h58.6v-0.8l-13.2-10.4V76c0-10.2-2.8-18.4-8.2-23.8c-5.8-5.4-13.5-8.4-21.4-8.2c-13,0-24.2,8.2-31.4,23.4V0.6L381.6,0L381.6,0z"
	/>
<path class="st0" d="M479.4,119.6c10.8,0,17.8,7.8,17.8,20c0,9.2-2.9,17.6-9,25.6c-5.8,7.9-13.8,14-22.9,17.5l-0.4-0.7
	c8.9-6.7,13.8-14.4,16.3-25.5c0.1-0.3,0-0.6-0.2-0.9c-0.2-0.2-0.5-0.4-0.8-0.4h-0.6c-10.5-0.2-18.2-7.8-18.2-18
	C461.6,127.6,469.6,119.7,479.4,119.6 M479.4,118.6c-10.4,0-18.8,8.4-19,18.8c0,10.6,8,18.8,19.2,19h0.6
	c-2.6,11.4-7.6,18.8-16.6,25.4l1.2,2.2c9.7-3.5,18.1-9.9,24.2-18.2c6.2-8.2,9.2-16.8,9.2-26.2C498.2,126.8,490.6,118.6,479.4,118.6
	L479.4,118.6z"/>
<path class="st0" d="M593.6,45.4c13.9,0,25.4,4,34.3,12c10.6,9.3,16.3,23.8,16.3,41.8c0,17.1-5,31.4-14.3,41.3
	c-8.8,9.3-21.6,14.4-36.3,14.4c-15,0-27.9-4.9-37.1-14.1c-8.8-8.8-13.5-22.4-13.5-39.3c0-19.2,7.1-35.5,20-45.8
	C571.7,49,582.5,45.3,593.6,45.4 M593.6,148c5.4,0,9.6-4.4,12.7-13.5c3.1-8.9,4.7-19.6,4.7-31.9c0-31.4-6.5-50.2-17.4-50.2
	c-10.7,0-17.4,17.5-17.4,45.8c0,15,1.5,26.7,4.5,35.7C583.8,143.3,588.1,148,593.6,148 M593.6,44.4c-11.3-0.1-22.3,3.6-31.2,10.6
	c-13,10.4-20.4,26.6-20.4,46.6c0,17,4.8,31,13.8,40c9.4,9.4,22.6,14.4,37.8,14.4c15,0,28-5.2,37-14.8c9.6-10.2,14.6-24.6,14.6-42
	c0-18.4-5.6-33-16.6-42.6C619.6,48.6,607.8,44.4,593.6,44.4L593.6,44.4z M593.6,147c-5,0-9-4.4-12-13.4s-4.4-20.8-4.4-35.4
	c0-26.6,6.2-44.8,16.4-44.8c10.4,0,16.4,19.4,16.4,49.2c0,12.4-1.6,23-4.6,31.6S598.6,147,593.6,147L593.6,147z"/>
<path class="st0" d="M709,1c5.1,0,10.2,0.3,15.2,0.9l1.1,33.6h-0.2L701.3,9.1c-0.2-0.2-0.5-0.3-0.7-0.3c-0.2,0-0.4,0.1-0.5,0.1
	c-1.9,1.2-2.9,4-2.9,8.6v34.8c0,0.3,0.2,0.6,0.4,0.8c0.2,0.1,0.4,0.2,0.6,0.2c0.1,0,0.2,0,0.3,0l24.3-7.8v24.3l-24.1-13.4
	c-0.1-0.1-0.3-0.1-0.5-0.1c-0.2,0-0.4,0-0.5,0.1c-0.3,0.2-0.5,0.5-0.5,0.9V139c0,0.4,0.2,0.7,0.5,0.9l24.1,12.5h-68.6l12-9.4
	c0.2-0.2,0.4-0.5,0.4-0.8V61.4c0-0.5-0.3-0.9-0.7-1l-13.3-4.2v-1.7l13.3-4.4c0.4-0.1,0.7-0.5,0.7-0.9c0.2-11.7,1.2-19.9,3.1-25
	c2.1-5.3,5.8-9.9,11.3-14.2C687.9,4,697.3,1,709,1 M709.1,0c-11.8,0-21.6,3-29.6,9.2c-5.6,4.4-9.4,9.2-11.6,14.6
	c-2,5.4-3,13.8-3.2,25.4l-14,4.6V57l14,4.4v80.8l-13.2,10.4v0.8h73v-0.8L698.2,139V57.4l25.6,14.2V44.2l-25.6,8.2V17.6
	c0-4.2,0.8-6.8,2.4-7.8l24.2,26.8l1.6-0.2L725.2,1C719.8,0.3,714.4,0,709.1,0L709.1,0z"/>
<path class="st0" d="M772.6,23.9v29.3c0,0.3,0.2,0.6,0.4,0.8c0.2,0.1,0.4,0.2,0.6,0.2c0.1,0,0.3,0,0.4-0.1l28.8-11.5v25.9L774,56.9
	c-0.1,0-0.2-0.1-0.4-0.1c-0.2,0-0.4,0.1-0.6,0.2c-0.3,0.2-0.4,0.5-0.4,0.8v62.4c0,8.4,4.8,13.4,12.8,13.4c4.7,0,10.7-2.3,17.8-6.7
	c-9.3,18.8-22.3,28.3-38.6,28.3c-14.4,0-23.4-8.2-23.4-21.4V61.2c0-0.5-0.3-0.9-0.7-1L726,55.8l13.5-9.1L772.6,23.9 M772.9,22.4
	L739,46l-14,9.4v1.2l15.2,4.6v72.6c0,13.6,9.2,22.4,24.4,22.4c17,0,30.4-10,40-30l-1-0.8c-7.4,4.8-13.6,7.2-18.2,7.2
	c-7.4,0-11.8-4.6-11.8-12.4V57.8L803.8,70V41.2l-30.2,12V22.6L772.9,22.4L772.9,22.4z"/>
<path class="st0" d="M856.8,45.4c14.6,0,25,3.6,31.9,11.1c6.7,6.9,9.9,16.6,9.9,29.9c0,2.1-0.2,4.2-0.3,6.2l-56.5,0.6
	c-0.6,0-1,0.4-1,1v1.2c0.3,12.8,2.7,22.1,7.3,28.5s11.7,9.7,20.9,9.7c9.6,0,18.2-3.8,27.8-12.3c-1.8,9.4-6.9,17.9-14.4,23.9
	c-8.1,6.5-17.8,9.8-29,9.8c-13.4,0-24.6-4.9-32.2-14.1s-11.8-22.8-11.8-39.1c0-15.4,4.3-29.4,12.2-39.4
	C830.1,51.3,842.3,45.4,856.8,45.4 M842,88.2L842,88.2l27.1-2.4c0.5,0,0.9-0.5,0.9-1v-3.2c0-25.8-8.3-29.6-13.2-29.6
	c-8.9,0-14.8,13.1-15.8,35.2c0,0.3,0.1,0.6,0.3,0.8C841.5,88.1,841.7,88.2,842,88.2 M856.8,44.4c-14.6,0-27.2,6-36,17.4
	c-8,10.2-12.4,24.2-12.4,40c0,33.6,17,54.2,45,54.2c11.4,0,21.4-3.4,29.6-10c8.1-6.4,13.4-15.6,15-25.8l-0.8-0.6
	c-9.8,9-18.6,13-28.2,13c-17.8,0-26.6-12.4-27.2-37.2v-1.2l57.4-0.6c0.2-2.4,0.4-4.8,0.4-7.2c0-13.4-3.2-23.4-10.2-30.6
	C882.2,48,871.4,44.4,856.8,44.4z M842,87.2c1-21.4,6.6-34.2,14.8-34.2c7.8,0,12.2,10.2,12.2,28.6v3.2L842,87.2z"/>
<path class="st0" d="M952.2,44.5v22.9c0,0.5,0.3,0.9,0.8,1c0.1,0,0.1,0,0.2,0c0.4,0,0.7-0.2,0.9-0.6c7-14.7,17.8-22.8,30.5-22.8
	c7.7-0.2,15.1,2.7,20.7,7.9c5.2,5.2,7.9,13.1,7.9,23.1v66.2c0,0.3,0.1,0.6,0.4,0.8l11.9,9.4h-54.9l10.6-8.8c0.2-0.2,0.4-0.5,0.4-0.8
	V79c0-5.8-1.5-10-4.7-12.7c-2.7-2.5-6.2-3.8-9.9-3.7c-5.3,0-10.7,3.2-14.6,8.8c-0.1,0.2-0.2,0.4-0.2,0.6v70.8c0,0.3,0.1,0.6,0.4,0.8
	l10.6,8.8h-54.9l11.9-9.4c0.2-0.2,0.4-0.5,0.4-0.8V66c0-0.3-0.2-0.6-0.4-0.8l-12.5-8.7L952.2,44.5 M952.6,43.4l-46.2,12.4v1
	l13.2,9.2v76.2l-13.2,10.4v0.8H965v-0.8l-11.8-9.8V72c3.8-5.4,8.8-8.4,13.8-8.4c3.4-0.1,6.7,1.1,9.2,3.4c3,2.6,4.4,6.6,4.4,12v63.8
	l-11.8,9.8v0.8h58.6v-0.8l-13.2-10.4V76c0-10.2-2.8-18.4-8.2-23.8c-5.8-5.4-13.5-8.4-21.4-8.2c-13,0-24.2,8.2-31.4,23.4V44
	L952.6,43.4L952.6,43.4z"/>
<path class="st0" d="M1050.4,119.6c9.8,0.1,17.7,8.2,17.6,18s-8.2,17.7-18,17.6c-9.8-0.1-17.6-8-17.6-17.8
	C1032.4,127.5,1040.5,119.6,1050.4,119.6 M1050.4,118.6c-10.4,0.1-18.7,8.6-18.6,19c0.1,10.4,8.6,18.7,19,18.6
	c10.3-0.1,18.6-8.5,18.6-18.8C1069.3,127,1060.8,118.6,1050.4,118.6z"/>
</svg>
