<svg xmlns="http://www.w3.org/2000/svg" viewBox="0 0 1069.38 184"><title>push-oftenAsset 1</title><path d="M61.4,11.2c20.59,0,35.18,3.28,44.63,10,9.4,6.47,14.17,16.35,14.17,29.38,0,14.24-5.07,25.82-15,34.43S81.06,97.8,63.4,97.8a82.07,82.07,0,0,1-11.48-1H51.8a1,1,0,0,0-.66.25,1,1,0,0,0-.34.75v42.8a1,1,0,0,0,.61.92L77.22,152.4H2l14.82-10.79a1,1,0,0,0,.41-.81V23.8a1,1,0,0,0-.42-.81L2,12.36c3.48-.07,11.47-.26,23.87-.56,16.54-.4,28.17-.6,35.58-.6M58.6,88.4c17,0,27.2-13.38,27.2-35.8,0-13-3.81-22.88-10.43-27.22-5.71-4-11-5.18-23.57-5.18a1,1,0,0,0-1,1V87a1,1,0,0,0,.91,1c1.34.13,4.69.41,6.89.41m2.8-78.2c-7.4,0-19.2.2-35.6.6s-25,.6-25.8.6v.8L16.2,23.8v117L0,152.6v.8H79.8v-1l-28-11.8V97.8a82.83,82.83,0,0,0,11.6,1c18.2,0,32.2-4.4,42.4-13C116,77,121.2,65.2,121.2,50.6c0-13.4-5-23.6-14.6-30.2-9.8-7-24.6-10.2-45.2-10.2ZM58.6,87.4c-1.8,0-4.6-.2-6.8-.4V21.2c12.6,0,17.6,1.2,23,5,6.4,4.2,10,13.8,10,26.4,0,21.8-9.6,34.8-26.2,34.8Z" fill="#ff9f1c"/><path d="M229.76,45.07l0,0V139a1,1,0,0,0,.38.79l11.35,8.82-43.1,5.13-.23-.29V132a1,1,0,0,0-.78-1l-.22,0a1,1,0,0,0-.9.56C189.16,146,178.19,154,165.4,154c-8.1,0-15.12-2.74-20.29-7.91s-7.91-13.23-7.91-22.89V63.8a1,1,0,0,0-.42-.82l-12.21-8.69,44.19-9.22,0,0v75.1c0,5.54,1.45,9.46,4.69,12.7a13.62,13.62,0,0,0,9.91,3.7c5.12,0,10.44-3.13,14.59-8.6a.93.93,0,0,0,.21-.6V63.8a1,1,0,0,0-.42-.82l-12.21-8.69,44.19-9.22M230,44l-46,9.6v.8l13.2,9.4v63.6c-3.8,5-8.8,8.2-13.8,8.2a12.7,12.7,0,0,1-9.2-3.4c-3-3-4.4-6.6-4.4-12V44.6L169,44l-46,9.6v.8l13.2,9.4v59.4c0,9.8,2.8,18.2,8.2,23.6s12.8,8.2,21,8.2c13.4,0,24.6-8.4,31.8-23v21.8l.8,1,45.4-5.4v-.6L230.8,139V44.6L230,44Z" fill="#ff9f1c"/><path d="M293.4,45.4c8.09,0,18.47,1.49,29.28,4.2.87,7.82,1.46,16.37,2.08,30l-1,.17c-8.6-8.61-17.55-17.83-26.62-27.42a1,1,0,0,0-.48-.28A17.67,17.67,0,0,0,293,51.4c-9.42,0-16,5.76-16,14,0,7.19,4.66,11.56,20,18.71,12.14,5.5,21,11.29,25.65,16.74s6.77,11.67,6.77,19.35c0,11.9-5.17,21.83-14.55,28-6.71,4.41-16.11,6.84-26.45,6.84A123.66,123.66,0,0,1,270,153.41a78.83,78.83,0,0,1-14.63-3.54,277.55,277.55,0,0,1-2.11-32.29l1-.26a350.74,350.74,0,0,0,29.28,30.62,1.06,1.06,0,0,0,.55.25l1.37.19a32.76,32.76,0,0,0,4.16.42c7.5,0,13.6-5.83,13.6-13,0-10.92-7.53-16.2-21.41-22.12C259.79,104.17,252,95.35,252,80a31,31,0,0,1,11.45-24.65c7.58-6.6,17.65-10,29.95-10m0-1q-18.9,0-30.6,10.2A32,32,0,0,0,251,80c0,15.8,8.2,25,30.4,34.6,15,6.4,20.8,11.6,20.8,21.2,0,6.6-5.6,12-12.6,12a49.54,49.54,0,0,1-5.4-.6,349.77,349.77,0,0,1-29.6-31l-2.4.6a282.09,282.09,0,0,0,2.2,33.8,78.17,78.17,0,0,0,15.4,3.8,125.24,125.24,0,0,0,18.6,1.6c10.4,0,20-2.4,27-7,9.8-6.4,15-16.6,15-28.8,0-8-2.4-14.6-7-20s-13.2-11.2-26-17c-15-7-19.4-11.2-19.4-17.8,0-8,6.4-13,15-13a17.17,17.17,0,0,1,3.4.6c10.4,11,19.6,20.4,27,27.8l2.4-.4c-.6-13.4-1.2-22.8-2.2-31.6-10.2-2.6-21.2-4.4-30.2-4.4Z" fill="#ff9f1c"/><path d="M381.19,1.13V67.4a1,1,0,0,0,.79,1,.78.78,0,0,0,.22,0,1,1,0,0,0,.9-.57c7-14.72,17.8-22.83,30.49-22.83a29.51,29.51,0,0,1,20.7,7.91c5.17,5.17,7.9,13.15,7.9,23.09v66.2a1,1,0,0,0,.38.78l11.95,9.42H399.6l10.63-8.83a1,1,0,0,0,.36-.77V79c0-5.8-1.54-10-4.71-12.73A13.65,13.65,0,0,0,396,62.6c-5.34,0-10.67,3.22-14.61,8.82a1,1,0,0,0-.19.58v70.8a1,1,0,0,0,.37.77l10.63,8.83H337.45L349.22,143a1,1,0,0,0,.38-.78V21.6a1,1,0,0,0-.42-.81L337.09,12l44.1-10.83m.4-1.13L336,11.2v1.2l12.6,9.2V142.2l-13,10.4v.8H394v-.8l-11.8-9.8V72c3.8-5.4,8.8-8.4,13.8-8.4a12.7,12.7,0,0,1,9.2,3.4c3,2.6,4.4,6.6,4.4,12v63.8l-11.8,9.8v.8h58.6v-.8l-13.2-10.4V76c0-10.2-2.8-18.4-8.2-23.8a30.42,30.42,0,0,0-21.4-8.2c-13,0-24.2,8.2-31.4,23.4V.6l-.6-.6Z" fill="#ff9f1c"/><path d="M479.39,119.6c10.82,0,17.8,7.85,17.8,20,0,9.21-2.94,17.59-9,25.61a50.76,50.76,0,0,1-22.94,17.54l-.36-.67c8.86-6.7,13.75-14.36,16.28-25.46a1,1,0,0,0-.19-.85,1,1,0,0,0-.79-.37h-.58c-10.55-.19-18.21-7.76-18.21-18a18.14,18.14,0,0,1,18-17.8m0-1a19.08,19.08,0,0,0-19,18.8c0,10.6,8,18.8,19.19,19h.6c-2.6,11.4-7.6,18.8-16.59,25.4l1.19,2.2A51.71,51.71,0,0,0,489,165.8c6.2-8.2,9.2-16.8,9.2-26.2,0-12.8-7.6-21-18.8-21Z" fill="#ff9f1c"/><path d="M593.59,45.4c13.87,0,25.42,4,34.34,12,10.64,9.28,16.26,23.75,16.26,41.85,0,17.07-5,31.35-14.33,41.31C621.1,149.85,608.22,155,593.59,155c-15,0-27.86-4.88-37.09-14.11C547.66,132.05,543,118.47,543,101.6c0-19.22,7.11-35.49,20-45.82A49.23,49.23,0,0,1,593.59,45.4m0,102.6c5.41,0,9.58-4.41,12.74-13.47,3.09-8.86,4.66-19.6,4.66-31.93,0-31.44-6.5-50.2-17.4-50.2-10.73,0-17.4,17.55-17.4,45.8,0,15,1.46,26.73,4.45,35.71,3.12,9.35,7.47,14.09,13,14.09m0-103.6A49.89,49.89,0,0,0,562.39,55c-13,10.4-20.4,26.6-20.4,46.6,0,17,4.8,31,13.8,40,9.4,9.4,22.6,14.4,37.8,14.4,15,0,28-5.2,37-14.8,9.6-10.2,14.6-24.6,14.6-42,0-18.4-5.6-33-16.6-42.6-9-8-20.8-12.2-35-12.2Zm0,102.6c-5,0-9-4.4-12-13.4s-4.4-20.8-4.4-35.4c0-26.6,6.2-44.8,16.4-44.8,10.4,0,16.4,19.4,16.4,49.2,0,12.4-1.6,23-4.6,31.6s-6.8,12.8-11.8,12.8Z" fill="#ff9f1c"/><path d="M709,1a133.55,133.55,0,0,1,15.23.89l1.14,33.63-.18,0L701.33,9.13a1,1,0,0,0-.74-.33,1,1,0,0,0-.53.15c-1.93,1.21-2.87,4-2.87,8.65V52.4a1,1,0,0,0,.41.81,1,1,0,0,0,.59.19,1,1,0,0,0,.3,0l24.3-7.78V69.9L698.67,56.52a1,1,0,0,0-.48-.12,1,1,0,0,0-.51.14,1,1,0,0,0-.49.86V139a1,1,0,0,0,.54.89l24.1,12.51H653.26l12-9.42a1,1,0,0,0,.38-.78V61.4a1,1,0,0,0-.7-1l-13.3-4.17V54.52l13.31-4.37a1,1,0,0,0,.69-.93c.2-11.72,1.23-19.92,3.13-25,2.14-5.27,5.83-9.91,11.28-14.19,7.81-6.05,17.29-9,29-9m0-1c-11.8,0-21.6,3-29.6,9.2-5.6,4.4-9.4,9.2-11.6,14.6-2,5.4-3,13.8-3.2,25.4l-14,4.6V57l14,4.4v80.8l-13.2,10.4v.8h73v-.8L698.19,139V57.4l25.6,14.2V44.2l-25.6,8.2V17.6q0-6.3,2.4-7.8l24.2,26.8,1.6-.2L725.19,1A132.82,132.82,0,0,0,709,0Z" fill="#ff9f1c"/><path d="M772.59,23.89V53.2A1,1,0,0,0,773,54a1,1,0,0,0,.56.17,1,1,0,0,0,.37-.07l28.83-11.46V68.52L774,56.87a.94.94,0,0,0-.37-.07A1,1,0,0,0,773,57a1,1,0,0,0-.44.83v62.4c0,8.39,4.78,13.4,12.8,13.4,4.69,0,10.66-2.27,17.76-6.73-9.34,18.8-22.31,28.33-38.56,28.33-14.43,0-23.4-8.2-23.4-21.4V61.2a1,1,0,0,0-.71-1l-14.41-4.36,13.49-9.06,33-22.93m.4-1.49L739,46l-14,9.4v1.2l15.2,4.6v72.6c0,13.6,9.2,22.4,24.4,22.4,17,0,30.4-10,40-30l-1-.8c-7.4,4.8-13.6,7.2-18.2,7.2-7.4,0-11.8-4.6-11.8-12.4V57.8L803.79,70V41.2l-30.2,12V22.6l-.6-.2Z" fill="#ff9f1c"/><path d="M856.79,45.4c14.56,0,25,3.62,31.88,11.1,6.67,6.86,9.92,16.64,9.92,29.9,0,2.06-.16,4.16-.32,6.21l-56.49.59a1,1,0,0,0-1,1v1.22c.31,12.78,2.71,22.09,7.34,28.47s11.69,9.71,20.86,9.71c9.61,0,18.23-3.8,27.77-12.27a39.8,39.8,0,0,1-14.4,23.89c-8.06,6.49-17.81,9.78-29,9.78-13.42,0-24.57-4.89-32.23-14.14s-11.77-22.8-11.77-39.06c0-15.38,4.33-29.36,12.19-39.39,8.59-11.13,20.77-17,35.21-17M842,88.2h.09l27-2.4a1,1,0,0,0,.91-1V81.6c0-25.76-8.27-29.6-13.2-29.6C847.92,52,842,65.14,841,87.15a1,1,0,0,0,.31.77,1,1,0,0,0,.69.28m14.8-43.8c-14.6,0-27.2,6-36,17.4-8,10.2-12.4,24.2-12.4,40,0,33.6,17,54.2,45,54.2,11.4,0,21.4-3.4,29.6-10a40.77,40.77,0,0,0,15-25.8l-.8-.6c-9.8,9-18.6,13-28.2,13-17.8,0-26.6-12.4-27.2-37.2V94.2l57.4-.6c.2-2.4.4-4.8.4-7.2,0-13.4-3.2-23.4-10.2-30.6-7.2-7.8-18-11.4-32.6-11.4ZM842,87.2c1-21.4,6.6-34.2,14.8-34.2,7.8,0,12.2,10.2,12.2,28.6v3.2l-27,2.4Z" fill="#ff9f1c"/><path d="M952.19,44.54V67.4a1,1,0,0,0,.78,1,.78.78,0,0,0,.22,0,1,1,0,0,0,.9-.57c7-14.72,17.8-22.83,30.49-22.83a29.51,29.51,0,0,1,20.7,7.91c5.17,5.17,7.9,13.15,7.9,23.09v66.2a1,1,0,0,0,.39.78l11.94,9.42H970.59l10.63-8.83a1,1,0,0,0,.36-.77V79c0-5.8-1.54-10-4.71-12.73A13.64,13.64,0,0,0,967,62.6c-5.35,0-10.68,3.22-14.62,8.82a1,1,0,0,0-.18.58v70.8a1,1,0,0,0,.36.77l10.63,8.83H908.26L920.2,143a1,1,0,0,0,.39-.78V66a1,1,0,0,0-.43-.82l-12.47-8.69,44.5-12m.39-1.14L906.39,55.8v1l13.2,9.2v76.2l-13.2,10.4v.8H965v-.8l-11.8-9.8V72c3.8-5.4,8.8-8.4,13.8-8.4a12.66,12.66,0,0,1,9.19,3.4c3,2.6,4.4,6.6,4.4,12v63.8l-11.79,9.8v.8h58.59v-.8l-13.2-10.4V76c0-10.2-2.8-18.4-8.2-23.8a30.41,30.41,0,0,0-21.4-8.2c-13,0-24.19,8.2-31.39,23.4V44l-.61-.6Z" fill="#ff9f1c"/><path d="M1050.38,119.6a17.8,17.8,0,1,1-18,17.8,17.91,17.91,0,0,1,18-17.8m0-1a18.8,18.8,0,1,0,19,18.8,18.95,18.95,0,0,0-19-18.8Z" fill="#ff9f1c"/></svg>