<svg xmlns="http://www.w3.org/2000/svg" viewBox="0 0 1230.67 1337.11"><title>selfportrait-2018</title><path d="M439.54,383.3a18.82,18.82,0,0,0-4.19,1.09c-7,3.69-14.64,3.09-22.22,3.85-8.62.87-17,4.52-25.4,7.1-.79.24-1.45,1.38-1.87,2.25-2.08,4.32-4.26,8.62-6,13.09a8.18,8.18,0,0,0,.22,5.5c2.25,5.44.18,14.41-4.2,18,0-8.89-.16-18.08,0-27.26.22-10.35,4.54-19,12.95-24.9,9.87-6.87,20.21-13.12,30.62-19.16,9.82-5.7,16.16-14.67,23.06-23.15,2.93-3.6,5.38-7.58,8.14-11.33.88-1.19,1.87-2.89,3.07-3.16,5.32-1.18,5.2-5.17,5.35-9.2.61-17.44,1.36-34.88,1.85-52.32.54-19,3.69-37.58,7.51-56.1,3.21-15.59,6-31.27,9.6-46.78,1.84-8,5.12-15.73,7.37-23.68,6-21.28,16.61-40.23,29.93-57.62,11.3-14.76,22.84-29.42,35.4-43.09,8.26-9,18.15-16.65,28-24C598.32-2.1,620.11-12.72,642-23.08c6.73-3.18,12.7-7.92,19.24-11.54C683.64-47,707.64-55.53,731.69-63.81c25.92-8.92,51.86-17.74,78.76-23.63,13.66-3,26.77-8.51,40.08-13,14.24-4.82,28.31-10.17,42.66-14.6,22.62-7,45.61-12,69.46-12.76,9.61-.28,19.17-2.43,28.78-2.74,17.62-.57,34.66,3.7,51.68,7.64,16.48,3.82,33,7.43,49.43,11.44,20,4.88,40.15,9.5,59.92,15.3,21.52,6.32,42.83,13.45,63.91,21.09,8.17,3,15.67,8,23.14,12.57,13.73,8.46,27.18,17.37,40.82,26,7.92,5,16.08,9.6,23.93,14.7a54.27,54.27,0,0,1,8.19,7.25c11.43,11.31,26.42,18.45,36.49,31.34a57.66,57.66,0,0,1,4.33,5.48q18,30,35.9,60.13c4.71,7.92,10.13,15.55,13.78,23.94,5.33,12.25,9.68,25,13.84,37.68,5.84,17.84,12.06,35.65,16.32,53.89,3.12,13.32,3.47,27.31,4.82,41,1.25,12.75,2.84,25.52,3.12,38.3.45,20.13.77,40.33-.48,60.4-.71,11.38-4,22.57-8.79,33.41-4.59,10.4-9,21.35-7.95,33.44.62,7.18,2.41,13.21,8,18.48,14.39,13.58,28.23,27.74,42.32,41.64a8.79,8.79,0,0,0,3.11,2.41c13.9,4.23,21.19,15.51,28.52,26.68,4.7,7.17,6.88,15.29,9.46,23.44,6.55,20.65,5.68,41.75,6,62.85a32.38,32.38,0,0,1-4.23,17.16c-4.52,7.9-8.21,16.27-12.62,24.23-1.35,2.43-4.24,4-5.88,6.29-8.35,11.87-22.31,15.58-33.45,23.36a46,46,0,0,0-9.1,8.29c-4.47,5.43-2.14,13.06,3.3,17.63,9.12,7.67,20.45,8.94,31.07,12.3,21.24,6.71,37.34,19.83,48.6,38.89,3.4,5.75,7.24,11.62,8.84,18,1.87,7.4,3,15.54-1.29,22.83a97,97,0,0,1-9,13.14c-2,2.43-1.79,4.06.05,5.93a14.13,14.13,0,0,1,4.33,11.24c-.06,1.22,1.31,3,2.51,3.72,12.16,6.9,20,17.85,25.21,30.06,3.19,7.49,5.31,16.31,1.81,25.13-1.6,4-1.6,8.71-2.42,13.07-1.61,8.51-5.6,15-13.47,19.69-8.62,5.16-16.25,12-24.5,17.78-2.74,1.93-6.1,3-10.6,5.09,6.9,3.4,12.74,7.15,19.12,9.23,9.75,3.17,13.7,10.12,16.88,19.16,2.9,8.22,2.07,16.34,2.6,24.55.78,12.27-9.1,26.27-23.68,28.09-12.76,1.6-25.43,2.51-38.09-1.36-5.65-1.72-11.84-1.63-17.52-3.29-3.7-1.08-6.72-4.38-10.4-5.7a75.47,75.47,0,0,0-34.08-4c-18.38,2-35.24,9.16-50.73,18-14.89,8.54-29.62,18.64-34.75,37.51-2.52,9.25-8.44,17.51-11.65,26.64-4.61,13.09-8,26.61-12.23,39.83a45.59,45.59,0,0,1-5.83,11.85c-5.53,8-11.42,15.74-17.42,23.39-8.17,10.42-19,17.83-29.71,25.29-8.92,6.2-17.74,12.6-27,18.3-8.16,5-16.87,9.15-25.29,13.78-14.48,8-30.68,10.6-46.51,11.28-12.48.54-26.2-.38-36.76-9.95-1.94-1.76-4.61-2.73-6.48-4.54-8.47-8.14-10-19.91-3.17-29.63,4.93-7,10.86-13.31,16.57-19.72,1.37-1.54,3.63-2.27,5.49-3.37l-1.79-2.27c-5.65,1.7-11.31,3.37-16.95,5.12-14.41,4.46-29.31,5.14-44,3.4-10.52-1.25-20.89-4.77-31-8.22-12-4.1-18.46-12.6-17.15-25.9a23.7,23.7,0,0,0-.25-3.32c-2.42,0-4.83,0-7.24,0-16.09.28-26.56-7.89-33.56-21.78a93.6,93.6,0,0,0-8.61-13.27c-4.84-6.54-5.33-13.57-3.37-21.14,1.47-5.69,2.38-11.54,4.14-17.14,2.94-9.33,9.82-15,18.91-17.75,11-3.34,19.62-14.08,18.77-24.86a8.75,8.75,0,0,0-4-6,136.39,136.39,0,0,0-15.94-6.91c-8.36-3.22-13.48-10-18.74-16.66-1.11-1.4-1.39-3.77-1.38-5.69,0-7.16,0-14.35.62-21.47.34-3.67,2.1-7.22,3.46-11.57-12,.39-23.34.07-34.65,3.29-12.57,3.59-25.5,5.9-38.23,8.94s-26,3.55-37.4,10.34c-6.31,3.76-12.89,8.17-17.12,13.93-2.88,3.93-5.58,7.58-9.61,10.05-4.26,2.61-8.87,4.67-13.63,7.12,8.31.89,12.64,7.08,16.38,12.75,11.45,17.37,15.81,36.73,13.35,57.46-.28,2.37-1.55,4.7-2.69,6.87-6.54,12.39-14,24.14-24.13,34a31.6,31.6,0,0,1-3.53,2.76c-3.86,2.8-7.69,5.64-11.62,8.33-2,1.4-4.22,3.41-6.45,3.58-5.47.41-5.56,4.16-6.71,8-5,16.88-9.44,34-15.94,50.31-3.25,8.17-10.36,14.83-16,22a9.77,9.77,0,0,1-5.11,3c-8,2-16.06,4.52-24.23,5.25a150.11,150.11,0,0,1-30.45-.07c-8.23-1-16.35-3.87-24.17-6.82-4.5-1.7-6.77-5.85-6.79-11.22,0-3.2-1.55-6.4-2.15-8.66-9.61,0-18.73.07-27.85,0-14.43-.13-26.91-4.85-38.4-14-9-7.15-18.17-13.95-21.74-25.19-4.29-13.52-10.37-26.63-10.88-41.21,0-1.36-1.74-3-3.09-3.93-6.48-4.24-13.13-8.24-19.67-12.4a5.66,5.66,0,0,1-1.92-2.24c-7.48-15.53-7.62-31.2-.56-46.89a5.48,5.48,0,0,1,2.73-2.68,55.41,55.41,0,0,0,24.24-17.38c-2.06-5.55-7.49-7.83-13.47-9.77-7.86-2.55-13.76.78-20.35,3.14a24.42,24.42,0,0,1-7.83,1.39c-11.33.14-22.73.81-34-.16-13.5-1.16-25.31-5.88-31.63-19.64-4.54-9.88-1-18,3.69-26.29a20.85,20.85,0,0,1,1.76-2.31c-3.81-5.14-9-5.91-14.71-5.5-11.73.84-22-2.76-30.26-11.15-2.08-2.12-3-5.68-3.68-8.76a31.22,31.22,0,0,1,0-9A20.68,20.68,0,0,0,439,896.25c-2.15-2.94-2.65-7.22-3.45-11-2.73-12.82,4.88-22.19,11.24-31.79,5-7.57,10.72-14.68,16.45-22.45L433,812.93l-1.44,2.27,21.08,14-.19,1.36c-3.54,0-7.17.48-10.6-.13-3.7-.66-7.24-2.31-10.82-3.58-10.84-3.84-18.2-11.31-20.79-22.41a268.9,268.9,0,0,1-6-34.62c-1.27-12.86,6.7-22.45,13.86-32,2.47-3.3,5.65-6.07,8.1-9.38,7.44-10.07,16.46-18.41,27.57-24.09,4.83-2.47,7.45-5.24,6.13-10.81-4.85,2.86-9.82,5.68-14.68,8.68-12.6,7.75-26.63,10.07-41,9.58-9.42-.32-14.8,4-18.13,11.72-7.08,16.39-7.51,26.13,4.72,39.92,2,2.27,5,3.69,8.15,6-.82.64-1.73,2-2.72,2-14.35.92-28.77-11.27-28.85-25.49-.07-11.38,4.16-21.77,11.79-30.49a20,20,0,0,1,3.51-2.52l-6.51-3.23-.32-1.79c3.35-1.19,6.62-2.86,10.08-3.48,7.94-1.42,16-2.43,24-3.38a84.94,84.94,0,0,1,13.36-.8c12.33.5,21.09-6.34,28.3-14.77,4.23-4.94,2.7-12.1,1.4-18.36-.17-.83-1.56-1.53-2.52-2-10.49-5.63-21-11.29-31.55-16.71a10.91,10.91,0,0,0-6.65-1.28c-13.1,2.85-25,.39-34.9-8.53-16.89-15.27-29.38-33.35-33.81-56.29-2.82-14.63.64-28.52,4.89-42.12,4.73-15.13,11.16-29.58,23.8-40.21a10.67,10.67,0,0,0,2.32-3.76c3.4-7.37,7-14.66,10-22.22,1.52-4,1.71-8.42,2.52-12.65,2.7-14.2,8.47-26.89,18.64-37.36,4.85-5,9.5-10.09,14.84-14.73,7.88-6.86,13.73-16.07,20.45-24.27ZM716,458.05l-.83.66c-.77-.55-1.51-1.16-2.31-1.66-4.1-2.55-8.15-1.63-11.12,2.17-4.83,6.17-9.87,12.18-14.75,18.31-4.15,5.21-10.54,8.66-11.77,16.22-.44,2.69-2.87,5-4.11,7.61-2.1,4.41-4.12,8.86-5.87,13.41-.82,2.14-.74,4.6-1.41,6.82-2.52,8.42-5.85,16.67-7.57,25.24-1.39,6.91-.34,14.29-1.39,21.31-.87,5.78-2,12.24-5.21,16.78-5.59,7.83-12.73,14.62-19.61,21.45-7.48,7.43-10.76,24.61-5.81,34.19,2.64,5.1,6.23,9.77,8.42,15,4.76,11.48,12.56,20.7,21.55,28.72,4.78,4.27,11.3,6.61,17.06,9.76,6.2,3.39,12.62,5.91,19.93,5.07a21.23,21.23,0,0,1,4.29.35c.49,5.77-1.5,7.59-6.33,6.34a15.79,15.79,0,0,0-5.34-.79c-7.1.73-13.4-1.48-19.48-4.78-.91-.5-1.9-.84-3-1.3-1.53,8.75,3.42,14.33,10,18,2.2,1.24,4.32,2.63,6.88,4.2,2.78-.34,6.61-1.78,9.87-1,4.57,1.16,8-.58,11.52-2.35,3.11-1.56,6.79-3.19,8.61-5.88,6.39-9.45,4.69-22-3.62-32.14l-1.68,2.43c-1.72,2.52-3.79,3-6.33,1.17-2.93-2.09-1.33-4.42.22-5.91,2.7-2.6,5.62-5.35,9-6.84a93.78,93.78,0,0,1,46.65-7.46c7.68.67,11.29,7.4,7,12.48-1.69,2-4.9,3.36-7.59,3.74-3.95.56-8.29,3.26-13.07-1.37l11.5-5.39c-13-8.14-24.4-.78-36.14.4,1.19,2.88,2.33,5.27,3.17,7.76,2,6,5.57,11.59,4,18.41-2.33,10-7,18.41-15.52,24.48-3.62,2.59-8.52,4.6-10.41,8.16-4.83,9.11-14.47,11.17-20.81,3.26-1.48-1.85-2-4.43-3.22-7.1-7.58-.15-12.49-4-15.71-11.49-3-7.09-4.45-13.7-1.09-20.44-11.7-6.27-18.75-16.39-26-26.15-3.41-4.59-4.85-10.65-8.32-15.17-5.75-7.49-9.09-15.21-7.53-24.83.74-4.55-.8-10.06,1.25-13.68,4.16-7.32,9.69-14,15.35-20.3,6-6.67,14-11.7,15.53-22.47-2.38.66-4.62,1-6.54,1.89-2.47,1.2-4.49,3.63-7,4.31-11.74,3.11-23.59,5.83-35.4,8.63a53.7,53.7,0,0,1-27-.55c-4.24-1.17-8.18-3.42-12.82-5.42.24,4.73,0,8.73.76,12.54s2.61,7.53,3.85,11.33c3.83,11.72,8.14,23.32,11.27,35.22,5.1,19.36,10.15,38.8,13.85,58.46,4.17,22.16,6.09,44.76,10.37,66.9,3.19,16.54,6.86,33.39,13.43,48.78,7.18,16.81,17.25,32.55,27.39,47.87,5.59,8.45,10.41,19.61,24.51,18.64a24,24,0,0,0-1.95,4.37c-1.06,5.07-3.74,10.68-2.52,15.19,3.69,13.6,8.47,27.05,18.72,37.47,6,6.09,11.37,13,20.63,14.78,11.24,2.1,22.46,4.32,33.59,6.93,8.55,2,16.8,5.77,25.42,6.86,11.17,1.42,22.58,1,33.89,1.3,12.49.38,24.2-2.54,35.53-7.78,5.37-2.48,11.26-3.81,16.85-5.84a21.56,21.56,0,0,0,5.51-3c3.79-2.83,7.15-6.31,11.15-8.76,6.38-3.91,13.15-7.2,20.09-10.93.56.09,2,.73,3.18.42,6.2-1.61,12.31-3.59,18.51-5.21,8.29-2.17,16.63-4.13,24.94-6.22,2.06-.52,4-1.63,6.11-1.76,11.45-.76,22.18-3.34,31.93-9.87,8.85-5.92,18.51-10.65,27.16-16.82s19.78-11.47,18.26-25.38c-.06-.59.6-1.23.61-1.85.09-3.54,1.26-7.64-.12-10.51-4.14-8.59-9.28-16.69-14.23-25.31-4.27,8.76-8.8,13-17.88,14.45a182.23,182.23,0,0,1-25.66,2.11c-14.85.32-21.08-4.14-26.83-18.71,1.62.17,3.05-.07,4.06.48,6.46,3.52,12.49,8.09,19.29,10.64,9.26,3.48,19.05,2.25,28.4-.64,5.48-1.7,8.39-6.67,7.87-13.08-.36-4.41-5-4.67-7.79-5.5-14.44-4.29-26.17-12.65-36.76-22.93-6.17-6-8.85-13.35-7-21.83,2.18-10,3.88-20.18,9.6-29.15,3.26-5.11,5.59-10.81,8.28-16.27a13.8,13.8,0,0,0,.71-2.64l-1.33-1c-3.64,4.12-8.48,7.69-10.69,12.47-8.21,17.76-19,35.3-9.12,56.9-8.51-4.5-13.75-15.13-11-23.63a280.23,280.23,0,0,1,13.71-34c3.75-7.8,11.12-11.37,19.74-13.33,8.08-1.83,15.75-5.47,23.59-8.34a3.67,3.67,0,0,0,1.23-.84c5.47-5.33,9.16-23.87,5.32-30.84a84.22,84.22,0,0,0-11.81-16.4c-4.94-5.34-11.4-9.3-16.24-14.72-3.83-4.29-7.88-9.57-8.84-14.95-1.34-7.49.12-15.47.4-23.88-5.72.71-12.07,2.16-18.43,2.17-24.57.06-49.12,2.63-73.73-.71-15.15-2.06-28.86-7.19-40.71-16.4a288.5,288.5,0,0,1-27.78-25.27c-5.31-5.37-10.41-11.45-13.77-18.13-5.76-11.45-10.05-23.64-15-35.49-1.4-3.33-3-6.56-4.55-9.84l-1.74.29c-.62,6.72-1.67,13.43-1.74,20.15-.09,8.1,6.4,12.73,10.87,18.42,4.89,6.23,9.47,12.69,14.19,19.06l2.35-2.1c-4.84-.08-9.35-1.23-12.87-4.92-4.14-4.33-8.18-8.76-12.15-13.24-5.24-5.9-9.6-12.41-7.16-20.71,1.91-6.46,5-12.56,7.37-18.91a9.2,9.2,0,0,0,.35-5.37,77.74,77.74,0,0,0-3.64-8.88c-2.77-6.48-5.91-12.82-8.24-19.45-3.91-11.1-13.88-15.44-22.61-21.21-.52-.35-1.48,0-2.36,0Zm306.12-20c-1.18-4.38-2.22-9.71-4.08-14.73-2.53-6.82-4.81-14-8.77-20a93.24,93.24,0,0,0-28.68-27.91c-5.84-3.63-12.49-6-18.22-9.74-12-7.91-23.71-16.37-35.75-24.76l-2,3.14c6.62,5.76,13.18,11.39,19.6,17.16,1.05.95,1.52,2.55,2.26,3.85l-1.28.8a117,117,0,0,1-30.34-26.31c-8.41-10.47-16.16-21.49-24.75-31.8a202.64,202.64,0,0,1-29.86-47c-7.85-17.57-12.66-36-13.19-55.34-.14-5.16-.63-10.31-1-15.46-.45,30.43-.06,60.76-4.84,91a8.4,8.4,0,0,1-3-3.88c-2.79-10.4-6.69-20.71-7.78-31.3-1.76-17-1.35-34.26-2.41-51.37-.49-7.93-2.31-15.78-3.53-23.67l-2.2.22v55h-1.42c0-.8,0-1.61,0-2.41-.18-17.83-.33-35.66-.56-53.49-.11-8.69-7.52-25.91-13.83-31.25-.39,32.55-2.17,64.32-15.86,93.95a9,9,0,0,1,.09-3.43c1.8-10.65,4.89-21.26,5.16-31.95.57-22.76-.26-45.55-.68-68.33-.11-5.73-12.21-17.47-17.93-17.79a10.81,10.81,0,0,0-4.13.4c-7.79,2.78-15.41,1.11-23-.88-.95-.25-1.71-2.06-2.14-3.29-3.21-9.35,2.82-16.61,6.42-24s9.41-13.5,14.19-20.23C772.76,57.53,776.24,51.19,781,46c6.73-7.41,14.35-14,21.59-21Q819.79,8.48,837-8.05c1.93-1.86,3.7-3.89,5-5.31-6,3.26-12.88,6.25-18.91,10.46-11,7.67-21.26,16.28-32.12,24.1-15.91,11.46-29.08,25.54-40.88,41.06s-21.21,33-36.36,46c-4.32,3.7-8.91,4.68-14.57,3a213.91,213.91,0,0,0-23-5.21c-12-2.26-21.52,3.74-29.64,11.15-6.89,6.3-12.46,14.1-18.23,21.54A25.85,25.85,0,0,0,624,148c-5.28,20.63-10.34,41.32-15.43,62-2.24,9.1-4.53,18.2-6.57,27.35-2.52,11.27-4,22.86-7.46,33.82-3.12,9.83-8.32,19-12.68,28.43a53.94,53.94,0,0,1-3.54,6.43c-6.42,10-12.73,20.14-15.11,32-.78,3.89-2.65,9.19-.9,11.55,2.48,3.36,2.24,6.22,2.44,9.59.07,1.27,1.09,2.49,1.68,3.73.86-1,2-1.81,2.52-2.94,2.24-4.95,4-10.27,10.92-10.21.14,0,.28-.5.51-.92l-2.93-2.17c4.43-3.31,8-.79,11.76,1.21,5.29,2.78,10.78,5.19,16.21,7.7,1.2.55,2.61,1.36,3.76,1.15,3.4-.61,6.71-1.67,10.31-2.63,1.64,8.9,8.11,9,13.9,11-2.81-8.6-2.81-8.6.53-9.77l1,1.67c2.49,4.32,4.28,9.33,7.65,12.77a31.45,31.45,0,0,1,8.31,13.62c2.14,7.57,4.3,9.19,12.2,9.69,14.11.88,28.2,2,42.29,3.18,18,1.48,36.08,3.07,54.12,4.62l.95-1q-2.65-3.13-5.29-6.26c-2.44-2.9-5.49-5.52-7.09-8.83-1-2.16,0-5.34.18-8.07l6.38,1.08a8.11,8.11,0,0,0,1,0l2.81-4.52,2.23,4.92c3.81-1.94-1.36-8.25,4.9-8.46l1.89,8.33,5.88-.75-.32-3.52c1.1.25,2.45,1,3.58.75,17.71-3.94,35.34-8.27,53.1-12,13.77-2.86,27.69-5,41.57-7.33,1.59-.26,3.34.51,5,.8l-.15,1.3-3.21,1c6.76-.09,13.35-1.09,20-1.26,15.57-.39,16-.15,18.07,2.06l-45.94,3,.13,2c7.25-.56,14.62-.49,21.71-1.86,8.08-1.55,15.5.52,23.26,1.66s12.33,9.37,20.78,8c.45-.07,1,.76,1.57,1.1,4.47,2.72,9,5.41,13.42,8.16a26.13,26.13,0,0,1,4.3,3.06q9.88,9.35,19.6,18.87a63.55,63.55,0,0,1,4.25,5.1,64.36,64.36,0,0,1-6.78,1.56,5.59,5.59,0,0,1-3.3-.91c-8.17-5-16.26-10.09-24.43-15.05-4.46-2.71-8.84-5.7-13.63-7.66-4.38-1.79-9.25-2.43-13.93-3.47-11.26-2.5-22.49-3.32-33.7.49-7.33,2.49-14.76,4.68-22.11,7.1-7.11,2.34-14.17,4.8-21.25,7.21l.3.84,11.93.74c-5.35,1-10,1.91-14.61,2.77-4.34.81-9.76-2.13-13.48,3.75,8.1.59,15.39,1.16,22.69,1.64,18.72,1.24,37.45,2.28,56.15,3.73a276.66,276.66,0,0,1,30.46,3.6,182.18,182.18,0,0,1,26.5,7.52c16.07,5.7,31.94,12,47.92,17.93a9,9,0,0,0,4.15.23C1011.8,439.67,1016.72,438.84,1022.08,438Zm336.29,7.62a12.18,12.18,0,0,0-.94-3.21c-7.57-11.2-11.19-24.65-20.52-34.91-4.34-4.77-9.65-7.84-15.39-8.26-13.49-1-25.17,4.89-35.74,12.66-2.72,2-5.07,3.34-8.36,3.09-21.86-1.62-42.93,3.82-64.26,7.07-11.43,1.74-23,2.83-34.45,4.15q-25.36,2.92-50.72,5.75c-17.06,1.89-34.14,3.67-51.21,5.54-10.5,1.15-21,2.2-31.47,3.59-7.71,1-15.35,2.53-23,3.83,5.28,11.84,4.59,30.84-7.32,32.88-1,11.69-2,23.39-3.08,35.08-.3,3.29-1,6.54-1.38,9.82-.86,7.37-3,14.35-5.17,21.44-2.64,8.59-6,16.47-11.49,23.55-1.65,2.12-2.52,4.83-3.75,7.28l1.23,1.23c2-.38,4.74-.07,6-1.27,5.41-5.39,12.55-10.4,15.06-17.05,4.16-11.06,11-21.26,11-34.12,0-11.59,2.73-23.17,4.13-34.77.2-1.68-.52-3.46-.48-5.18.05-2.33.55-4.66.62-7a60.13,60.13,0,0,0-.45-6.05l224.34-36.46c-3.69,7.47-8.52,14.48-10.54,22.21-1.58,6.07-3.12,12-6.19,17.35-3.2,5.54-5.07,10.86-2.4,17a3.73,3.73,0,0,1,.11,1.49c-.23,11.75.62,23.4-1.06,35.28-2.21,15.6-7.29,30.11-12.33,44.77-.64,1.85-1.4,4-2.8,5.18-6.62,5.54-9.24,13.52-11.7,21-3,9.13-4.29,18.91-5.54,28.51-1,7.31-.8,14.77-.9,22.16,0,1.85.27,4.62,1.45,5.39a59.37,59.37,0,0,0,11.79,5.87c5.89,2.18,10.57-.63,14.17-5,1-1.19.73-3.83.36-5.66-1.53-7.6,7.72-15.92,15.32-13.57.75.23,1.95.81,2,1.29.26,3.75.9,7.64.21,11.25s-4.19,3.21-7.07,2.89c-3.51-.39-4.08,1.13-3,3.76,2.34.49,5,.3,6.27,1.54,1,1,.19,3.71.19,5.49l18-5.41c-.7-8.35-1.65-16.43,1.34-24.12l2.05-.07,2.13,22.21,1.76.29c3.22-3.82,6.55-7.55,9.58-11.52,1.1-1.44,2.23-3.56,2-5.18-.77-5.69-2.16-11.29-3.2-17-.11-.62.52-1.37.81-2.07l1.5-.39,5.74,15.12c4.52-4.68,8.77-9,12.93-13.47a2.79,2.79,0,0,0,.38-2.25c-2.18-8.2-4.44-16.38-7-25.69,2.13.84,5.16,1.07,6.23,2.64,2.15,3.17,3.27,7,4.75,10.66.73,1.8,1.3,3.67,2.23,6.34.38-3.31-.09-5.78.94-7.12,5.43-7.1,9.8-14.4,12.41-23.27,2.78-9.46,8.28-18.09,12.28-27.21,3.31-7.55,6.47-15.2,9.15-23,2.17-6.33,3.49-13,5.27-19.43a16,16,0,0,1,1.86-4.37c1.54-2.39,4.54-4.49,4.8-6.94.93-8.77,7-11.06,14-12.61a23.9,23.9,0,0,0,2.85-.88c4.64-1.66,7.4-4.5,7.43-9.88,0-7.87,1.31-15.45-2.74-23.24C1366.09,448.43,1365.86,446.61,1358.37,445.63Zm-557.62-27-.14-1.32c-9.41,1-18.82,1.91-28.22,3-5.69.64-8.86,3.71-8.93,9.7,0,3-.52,6-.56,9-.27,19.57,3.3,38.73,6.56,57.91.22,1.27,1.9,2.77,3.24,3.3,6.88,2.7,13.57,5.33,16.7,13a111.13,111.13,0,0,0,6.84,13.15c9.18,16,17.4,32.23,13.52,51.68a3.82,3.82,0,0,0,1.15,3.22c6,4.07,11.62,9.2,18.24,11.58a216.9,216.9,0,0,0,33.52,8.7c22.49,4.22,45,6.21,67.2-2.33,8.52-3.27,17.4-5.71,23.42-13,8.91-10.84,18.39-21.33,23.62-34.7,1.73-4.42,3.87-8.69,5.42-13.18,2.12-6.16,5-12.36,5.5-18.71.87-10.75.49-21.65,0-32.46s-.29-22.07-8.23-30.91c-2.58-2.88-5.93-5.07-8.68-7.81-7.2-7.16-16.45-10.93-25.6-14.14C937,431.3,928,430.61,919.24,429c-2.35-.44-4.73-.72-7.1-1.08l-.26,1,37.69,12.49c-25.52-6.08-50.55-14.91-76.33-18.77-25.93-3.88-52.6-2.81-79-3.91l-.09.47Zm-219,32.47.78,1.13c-8.27,1.31-10.63,5-10.12,13.62.7,11.78,1.36,24.13-3.24,35.69a10.31,10.31,0,0,0-.23,2c-1.54,8.79-3.06,17.59-4.65,26.37-1.24,6.83-2.79,13.62-3.74,20.49-.44,3.2.21,6.55.4,10.38,10.54,5,22.58,5.89,34.86,5.32a143.57,143.57,0,0,0,38-7c8.85-2.88,12.46-6.39,13.12-15.34a16.56,16.56,0,0,1,.79-3.85c2.41-7.41,4.78-14.82,7.34-22.18,3.51-10.1,7.22-20.13,10.76-30.22,1.07-3.05,1.88-6.2,3-9.76-3.69-1.29-7.28-3.9-10.08-3.23-6.08,1.46-11.66,4.87-17.63,7-5.24,1.83-10.8,4.31-16.08,4-5.55-.3-9.41.84-13.35,4.41-3,2.68-6.62,4.23-11.3.84l7.58-4.19c-8.11-6.27-8.39-6.27-16.1,1.44l11.58,10.94-.45.75L584,486.17c2.31-5.68,9.83-4.81,14-9L586.4,466.75c6.83-2.82,8.75,2.83,11.74,4.7l6.41-3.71-13.24-8.35c2.38-.79,3.86-1.17,5.24-1.77s3.87-1.17,4.3-2.33c1.25-3.36-.85-6-3.8-7-1.28-.47-3.94.59-4.84,1.8-1.73,2.34-2.64,5.27-3.89,8h-1.66L586,447l-16-1.55,2.56,7.9Zm-34,126.29c0-4.07-.17-7.9.05-11.7.18-3.11-1-5-3.32-7.19-7.08-6.49-14.8-12.69-20.31-20.41-13.85-19.4-20.88-41.8-22.93-65.3-1.6-18.39-3.63-37.14,3.76-55.1,3.67-8.91,8.45-14.85,15.48-14.89,9.38-.05,18.76,0,27.42,0l3.89-16c-10.1,1.33-19.84-1.45-29.82,1-15.3,3.8-25.91,12.26-28.72,27.85a226.44,226.44,0,0,0-3.14,36.72c-.18,12.22,1.38,24.45,1.79,36.68A80.81,80.81,0,0,0,501.77,525C513,545.78,527.1,564.35,547.77,577.39ZM558.6,404.82c1.83,5.22,4,10.17,5.28,15.33,1.69,6.55,2.65,13.29,4.17,19.89a4.68,4.68,0,0,0,2.64,3,89.63,89.63,0,0,0,12.07,2.58c1.33.19,4-.72,4.06-1.28.37-5,4.54-6.64,7.6-9.27,5-4.26,10.5-6.26,17-4,3.38,1.21,6.68,2.66,10,4.05,5.49,2.3,11.37,4,16.34,7.12,8.1,5.11,15.56,11.23,23.39,16.8,1.52,1.08,3.48,1.54,5.24,2.29-3.23-5.51-7.07-9.84-10.73-14.32-.69-.85-.68-2.27-1-3.42l1.33-.54,8.24,8.65a138.11,138.11,0,0,0-6.62-15.09c-.48-1-1.21-2.86-.9-3.09,2.84-2.13.22-3.41-.88-4.09a10.49,10.49,0,0,1-5.23-7.13,4.57,4.57,0,0,0-2.58-2.83c-5.71-2-11.41-4.19-17.31-5.36-7.22-1.44-14.79-1.26-21.94-3C592.46,407.31,576.57,401.24,558.6,404.82Zm187.91,56.73,1.74-.29c.79-12.21,1.7-24.41,2.17-36.63,0-1.14-2.54-3.15-4.15-3.45-4.18-.78-8.52-.69-12.77-1.2-12.76-1.51-25.49-3.27-38.26-4.68-6.92-.77-13.89-1-21.75-1.61l10.73,30.17c11.13-4.67,22.07-5.73,32.86-1.23,6.55,2.74,12.51,6.89,18.89,10.08,2.61,1.31,5.65,1.76,8.77,2.68ZM1183,778.24c-3.7,7.54-7.37,14.07-10.17,21-4.85,11.95-14.87,18.8-24.41,26.27-5.33,4.17-9.39,9.23-9.36,16.53,0,4.33,0,8.66,0,13a21.86,21.86,0,0,0,7.89,17.48,52.49,52.49,0,0,1,8.26,8.5c3.26,4.47,7,7.92,12.52,9.09a3.87,3.87,0,0,1,2.22,1.62c4.68,7.55,9.61,15,13.75,22.81,2.82,5.34,4.5,11.29,6.68,17a4.3,4.3,0,0,0,1-3.5c-2.27-7.57-4.33-15.22-7.13-22.59-2.53-6.63-5.92-12.62-12.76-16.43-6.33-3.53-11.14-9.16-12.14-16.79-1.39-10.5-3.31-21.19,1.85-31.26,1.51-2.94,4.07-5.33,6.12-8,6.45-8.39,13.36-16.47,19.12-25.31,2.53-3.88,4.21-9.53,3.53-14C1189.14,788.22,1185.43,783.24,1183,778.24ZM370.77,510.54l-1.71-.24c-1.54,3.91-3.23,7.77-4.59,11.74C355,549.76,352,577.22,368.32,603.7c8.44,13.7,17.88,26.54,32.38,34.57a33.25,33.25,0,0,0,5.4,1.95C376.95,601.49,361.6,559.51,370.77,510.54Zm255.4-120.47c-4.42-3.52-8.3-7.8-14.69-6.91-1.84.26-4.2-1-5.87-2.24-6.16-4.47-12.26-9.06-18.14-13.88-5.4-4.43-7.83-4.4-11.94,1.26-2.14,2.94-3.9,6.14-5.92,9.18-1.42,2.14-3,4.19-4.48,6.28l1.13,1.36Zm540.28,305.62c-1.3,3.59-1.93,7.62-4,10.68-6.41,9.44-4.75,19.53-3.4,29.71.71,5.37,1.42,10.75,2,16.13.94,8.27,1.79,16.54,2.73,25.32,1.87-2.6,4.4-4.73,5.12-7.36,3.14-11.39,4.51-23.13,1.89-34.74C1167.83,722.3,1164.66,709.31,1166.45,695.69ZM1274,685.91l-2.09.12c-1-6.34-1.66-12.75-3.06-19a16.66,16.66,0,0,0-4.23-7.42c-1.05-1.1-3.61-.76-5.5-1.07a28,28,0,0,0-.64,5.58c.19,2.42,1.67,4.92,1.28,7.16-1.47,8.53.75,15.81,5.95,22.53,2.38,3.08,5.59,5.24,8.79,3.38s6.58-5.17,7.17-8.35c1.13-6.11.65-12.61.14-18.88-.17-2.06-2.51-3.94-3.85-5.9-1.32,2-3.55,3.92-3.77,6C1273.63,675.31,1274,680.63,1274,685.91ZM800.17,568.59C802.41,555.9,781,510.93,771.3,508,773.27,528,786.78,556.36,800.17,568.59ZM554.78,431.73c-1-4.24-1.65-7.64-2.77-10.87a4.91,4.91,0,0,0-3.08-2.7c-7-1.55-14.3-2.33-21.2-4.34-5.65-1.65-8.37,1.36-10.85,5.07-1.48,2.21-2.11,5-3.35,8.08Zm689,269.07c-.15-.06-.57-.1-.72-.32-6.12-8.78-7.4-19.41-11.18-29.09-.62-1.58-2.32-2.73-3.53-4.07-.76,1.44-2.08,2.84-2.16,4.31a31.22,31.22,0,0,0,.9,7.35,145,145,0,0,0,3.05,14.47,116.49,116.49,0,0,0,6.75,18.29c.87,1.76,4.79,2.88,7.25,2.77,2.85-.13,4.28-2.72,3.91-5.9-.13-1.1.44-2.26.44-3.4,0-7.88,0-15.77,0-23.65l-2.5-.17C1246.32,688,1248.51,694.8,1243.78,700.8Zm43.82-61.6-2,.13c-.23,2.42-.63,4.84-.62,7.26,0,1.58,1.26,3.41.78,4.69-2.09,5.52-1,10.5,1.1,15.76,1.8,4.61,4.08,6.75,8.09,5.78,3.49-.84,5.35-5,3.86-9.44a154,154,0,0,0-5.61-14.59C1291.66,645.44,1289.49,642.38,1287.61,639.2Zm19.34,22h2.17c1-2.42,2.51-4.79,2.73-7.28a63.38,63.38,0,0,0,0-14.9c-.48-3.17-2.6-6.21-4.49-9-.51-.75-3.11-.73-4.28-.14-.87.44-1.72,2.76-1.3,3.59,3.28,6.42,1.79,13.29,2.4,20C1304.38,656.12,1306,658.65,1306.94,661.23ZM653.22,473.12l-.38-1.46-32.9,6.46-.75,5.72ZM680.65,725c-.63.75-3.3,2.88-2.95,3.7a9.53,9.53,0,0,0,5,4.91c1,.34,4.15-2.28,4.41-3.89C687.56,726.87,685.54,724.89,680.65,725ZM700.84,449.1l-1.09-1.29c-1.72.7-4.23.91-5,2.19-3,4.84-5.46,10-8.11,15.09l1.72,1Zm-65.42,7.15-1.26,10,13-1.57ZM617.18,477.4c-7.78-3.46-10.53-3.36-12,.26l8.23,5.93ZM749.9,379.93l-1.33,1.13,7.32,11,1.34-.67-1.47-10.1Z" transform="translate(-342.59 130.59)" fill="#333f33"/><path d="M829.66,797.62c.37,4.85-1.62,7.08-6.25,7.35-13.43.8-25.67-3.06-37.51-9a19,19,0,0,0-9.29-1.84c-17.83,1.09-35.72,1.92-53.41,4.2-5.83.75-11.07,1.79-16.75-.19-1.64-.57-3.84.66-5.8.78-11.55.69-22.27-3.3-31.19-9.5-5.22-3.63-10.67-5-16-7.24-3.74-1.57-6.1,1.62-7.6,4.09-2.88,4.73-5.83,2.58-7.78.07a67.28,67.28,0,0,1-7.69-13c-.93-2-.2-4.75-.41-7.14a14.09,14.09,0,0,0-1-3c-.62-1.87-1.22-3.74-1.88-5.77,6.89-.84,15.23,9.94,16.3,17.75,3.06-5.17,6.05-10.05,8.87-15,3.25-5.73,12.31-7.39,18.35-4.92,13.54,5.53,27.43,9.42,42.42,5.32,11.11-3,21.93-4.42,33.76-.21,12.62,4.5,23.38,11.9,35,17.92,10.35,5.37,20.44,11.26,30.38,17.35,5.75,3.52,11.56,3.15,17.65,2.08Z" transform="translate(-342.59 130.59)" fill="#333f33"/><path d="M791.07,827.24a24.06,24.06,0,0,1-8.26,13.81c-3.95,3.44-6.08,8.88-9.76,12.74-4.64,4.86-9.4,10.48-15.29,13-5.17,2.23-12,1.15-18.06.66-12.77-1-25.09-5.56-38.19-4.62-4.08.29-8.29-1.18-13-1.92,2,6.61,3.36,11.7,10.9,15,9.07,4,17.91,7.06,27.67,8a18.34,18.34,0,0,1,7.54,2.83c-5.83-1-11.64-2.61-17.48-2.7a55.87,55.87,0,0,0-17.5,2.38c-5.62,1.78-10.69,5.29-16,8l-.81-1.64,16.93-8.56-13.59-1-1.73,2.83c-.43-.45-.67-.74-.94-1-1.39-1.36-2.75-3.85-4.17-3.88-5-.11-7.59-3-10.34-6.48-6.63-8.42-13.8-16.42-20.23-25-3.09-4.11-5-9.11-7.63-14.08l2.46-1.61c-.2-3.43-.35-6.53-.56-9.63a8.06,8.06,0,0,0-.47-2.9c-4.15-8.57-9-16.86-12.4-25.71-3.53-9.24-5.66-19-7.74-28.76l19.71,52.83c1.39-2.4,2-4.53,3.44-5.68,2.2-1.78,5.08-4.12,7.42-3.87,1.67.18,3.08,4.14,4.31,6.57,1.6,3.16,2.63,6.62,4.46,9.62.75,1.24,2.92,1.65,4.49,2.34,1,.46,2.7.38,3.19,1.13,4.38,6.7,11.66,5.16,17.9,6.49,5.61,1.2,11.23,2.32,16.86,3.42,7.13,1.39,14.26,2.78,21.41,4.06,2.93.52,6,.32,8.84,1.21,11.16,3.59,19.91-1.51,29.13-6.76,7.8-4.45,15.17-10.25,24.6-11.32A20.06,20.06,0,0,1,791.07,827.24Z" transform="translate(-342.59 130.59)" fill="#333f33"/><path d="M747.21,694.39c4.29-6.37,10.52-9.23,17.13-11.42,5-1.66,9.7-3.15,13.55-7.55,4.44-5.08,5.53-10.33,5.73-16.74.3-9.9-.55-19.42-4-28.77a33.37,33.37,0,0,1-1.47-9.75c-.06-1.26,1.14-2.59,2.53-3.84,4.66,10.46,11.71,19.76,11.11,31.79-.14,2.82,0,5.66,0,8.49.08,14.53-6.38,24.44-20,29.65C763.74,689.33,755.41,691.7,747.21,694.39Z" transform="translate(-342.59 130.59)" fill="#333f33"/><path d="M748.34,620c-1.49,0-3,0-4.48,0-5.76-.1-8.68-2.26-8.82-6.52-.16-4.91,4.87-11.32,9.26-11.4,6.56-.12,12,2.09,15.23,8.26,2.84,5.44.41,9.54-5.73,9.66C752,620,750.16,620,748.34,620Zm6.43-3.9c-.31-5-3.7-9.26-7.72-10s-5.26,2.05-6,5c-.82,3.19,1.22,4.66,4,4.89C748.24,616.29,751.5,616.1,754.77,616.1Z" transform="translate(-342.59 130.59)" fill="#333f33"/><path d="M829.78,797.74v-10.2c10.69,1.46,16.81,14.15,14.51,21.62-.32,1-1.75,2.66-2.32,2.52-1.76-.4-3.91-1.11-4.91-2.45-2.74-3.66-5-7.71-7.39-11.61Z" transform="translate(-342.59 130.59)" fill="#333f33"/><path d="M678.29,646.72c3-1.87,5.95-4,9.14-5.55,9.79-4.77,19.72-9.26,29.51-14,1.19-.58,2.73-2.09,2.75-3.2.12-7.14,2.72-14.57-2-21.29a6.44,6.44,0,0,1-1-3.67c4,2.24,5.51,6.18,6.35,10.27.66,3.23.49,6.62.82,9.93.56,5.64-1.49,9.29-7,11.55-8.8,3.59-17.35,7.81-26,11.77-3.95,1.81-7.88,3.63-11.82,5.45Z" transform="translate(-342.59 130.59)" fill="#333f33"/><path d="M715.68,550.52c.37-9.32,1-18.57,4.75-27.4a48.54,48.54,0,0,0,2.44-8c1.44-6.35,6.58-8.84,11.65-11.44l1.79,1.76a45.51,45.51,0,0,1-4.42,1.84c-4.89,1.48-5.57,5.53-6.09,9.71a9,9,0,0,1-.38,2.93c-4.21,8.11-3.65,17.23-5.63,25.8-.44,1.9-1.63,3.62-2.47,5.42Z" transform="translate(-342.59 130.59)" fill="#333f33"/><path d="M848.37,699.16c-11.82-13.76-30.57-46-35-60.07Z" transform="translate(-342.59 130.59)" fill="#333f33"/><path d="M582.35,628c1.23-1.7,1.88-3.51,2.91-3.75a4.13,4.13,0,0,1,3.48,1.84,53.42,53.42,0,0,1,3.86,10c.25.93-1,2.94-2.08,3.35-.79.32-2.76-.81-3.36-1.8C585.35,634.56,583.95,631.27,582.35,628Zm2.41-3.64c.85,5.6.86,10.39,5.44,13.86C591.79,633.8,589.65,628,584.75,624.35Z" transform="translate(-342.59 130.59)" fill="#333f33"/><path d="M671.91,295.31c-6.7-2.59-13.51-5-20.09-7.81-13.94-6.05-28.1-11-43.61-10.34a47.92,47.92,0,0,0-5,.31,37.84,37.84,0,0,0-4.21,1.1l-.36-1.16c2.77-.7,5.5-1.79,8.31-2,15.58-1.3,29.93,3.44,44,9.4,7.17,3,14.27,6.22,21.41,9.34Z" transform="translate(-342.59 130.59)" fill="#333f33"/><path d="M783,302.75c.52,3.15-.92,5.54-4.5,6-3.31.42-7.25-4.4-7-8.22.2-3.62,3-5.64,7.53-5.39C782,295.31,783.07,297.31,783,302.75Z" transform="translate(-342.59 130.59)" fill="#333f33"/><path d="M700.65,366.29q0,1.43,0,2.86,0,12.15,0,24.31H700V366.3Z" transform="translate(-342.59 130.59)" fill="#333f33"/><path d="M748.11,240.54c-1.71-.73-3.06-1.86-4.09-1.62-1.8.41-3.4,1.67-4.69,2.37.19-.36.75-2.75,1.69-2.91a11.82,11.82,0,0,1,7,.75c.87.44.72,3.66.3,5.44-.16.68-2.37.88-3.65,1.3a15.23,15.23,0,0,1-.78-3.82C743.88,241.7,745.56,241.41,748.11,240.54Z" transform="translate(-342.59 130.59)" fill="#333f33"/><path d="M1229.43,571.42c-2.33,2-3,.21-2-1.36,4.69-7.76,6.81-18.11,18.59-19.05,3.2-.26,5-1.92,4.57-5.61-.56-4.92.14-9.61-3-14.55-1.73-2.71,1.07-8.65,2.48-12.91,1.22-3.67,3.73-6.9-.22-10.53-.78-.71-.7-3.58.08-4.4s3.88-.79,4.34-.08c4.51,7,4.29.23,6-2.57l1.57,4.83c7.44-3.1,13.89-.1,20.29,3.18.59.3,1.3,1,1.75.85,6.71-2.09,9.4,4.47,14.1,6.65,3.11,1.44,4.06,8.85,2.18,13.38-2.58,6.24-4.16,13.51-8.44,18.31-7.15,8-13.53,18.53-27.3,16.61-3.14-.44-6.63,1.13-9.87,2.07a95.43,95.43,0,0,0-12.91,4.3c-5.63,2.54-11,5.69-17.78,9.27,1.77-2.45,2.93-4,4-5.58.61-.91,1.07-1.92,1.6-2.86,2.21-.72,4.4-1.47,6.6-2.2,5.48-1.8,10.94-3.64,16.44-5.35,4-1.25,8.3-3.71,12.15-3.22,11.51,1.48,16.27-7.44,21.94-13.9,4.05-4.62,6-11.38,7.86-17.49.88-2.9.51-7.86-1.38-9.54-3.2-2.85-6.21-7.75-12.08-6.06-.74.21-1.94-.53-2.7-1.12-5.14-4-10.94-4.11-16.35-3.3l-8.08,19.24,1.25-.22c.77,3,1.74,6,2.24,9a37.29,37.29,0,0,1,0,6.48c-.13,9.55-2.37,11.73-12,12.41-1.54.11-3.35,1.48-4.38,2.78C1237.44,563.37,1235.13,568.94,1229.43,571.42Z" transform="translate(-342.59 130.59)" fill="#333f33"/><path d="M1269.68,475l8.12,6.79c2.67,2.23,5,1.48,5.58-1.62,1.22-7.18,4.71-14.13,2-21.8-2.34-6.49-.91-8.51,5.43-9.8.61,3.27,1.7,6.53,1.72,9.8.06,9.73-.14,19.57-7.74,27.09-2.54,2.52-5.67,3.55-8.88.75S1268.13,480.91,1269.68,475Z" transform="translate(-342.59 130.59)" fill="#333f33"/><path d="M1335.1,450.3c-9,10.62,1.65,32.74,17.44,36.56-2.17,3.67-5.78,4.34-9.67,1.78-12.65-8.33-18.1-21.4-15.07-36.15C1328.45,449.33,1330.07,448.77,1335.1,450.3Z" transform="translate(-342.59 130.59)" fill="#333f33"/><path d="M1359.76,453.3l4.28,3.42,1.16-.58c.57,5.75,1.69,11.51,1.49,17.23-.11,3.15-2.07,6.46-3.94,9.2-.72,1.06-3.75,1.4-5.23.81-1.08-.43-2.08-3-1.88-4.45C1356.85,470.18,1358.41,461.48,1359.76,453.3Z" transform="translate(-342.59 130.59)" fill="#333f33"/><path d="M1305.67,566.31c6.46-9,12.94-17.5,18.68-26.44,2.42-3.77,3.45-8.49,4.8-12.88,2-6.44,3.06-13.23,5.69-19.38,2.12-5,3.66-9.44,1.54-14.63,3.47,3.67,2.43,7.71,1.17,11.94-2.37,8-4.3,16.08-6.78,24-1.6,5.14-3.27,10.41-6,15a160.83,160.83,0,0,1-12.74,18C1310.58,563.87,1307.9,564.85,1305.67,566.31Z" transform="translate(-342.59 130.59)" fill="#333f33"/><path d="M1297.34,441.84c8.85-6.7,16.88-15.27,29.67-13.06a16.51,16.51,0,0,1,4,1.65c2.93,1.39,6.09,2.49,8.67,4.37a30,30,0,0,1,6.11,6.66c.39.53-.73,2.16-1.16,3.29-1.16-.57-3-.86-3.35-1.76-1.36-3.2-3.22-5.18-6.93-5.33-1.15,0-2.35-1.17-3.35-2-6.23-5.22-12.44-5.22-19.28-.87C1307.26,437.63,1302.17,439.52,1297.34,441.84Z" transform="translate(-342.59 130.59)" fill="#333f33"/><path d="M1233.59,552.69l2.91-11.44C1239,546.16,1238.27,549.46,1233.59,552.69Z" transform="translate(-342.59 130.59)" fill="#333f33"/><path d="M901,453a27.91,27.91,0,0,0-4.73-1.47,21.07,21.07,0,0,0-4.46.31l0,1.56,38.6,15.13-.51,1.27-38.19-14.3-.45,1.22c4.1,1.69,8.18,3.41,12.3,5.06,9.07,3.65,18.3,7,27.17,11.05,3.34,1.54,5.87,4.81,8.24,6.84-3,2.19-5,4.25-7.47,5.33a129.07,129.07,0,0,1-13.77,4.87c-2.18.67-4.58.62-6.78,1.23-1.11.3-2.6,1.17-2.9,2.1-1.61,5.09-2.91,10.28-4.56,16.34l16.87-5.94.48,1.13c-4.52,1.82-8.94,4-13.61,5.32-3.5,1-4.46,3-5.24,6.08Q895,543,887.78,569.74c-.6,2.23-2,4.25-3,6.36l-1.11-.47,15.77-62.94L888,514.8l-.14-.5c4.12-1.7,9.5-2.36,12-5.39,2.67-3.24,2.61-8.73,4.2-15.06-2.94.92-4.88,1.49-6.78,2.15s-4.09,1.37-6.05,2.25c-4.11,1.84-8,3.4-10.66,7.94-2,3.42-7.21,4.81-10.32,7.8-2.49,2.4-4,5.85-6.3,9.45l7.68,2.85-.14.64-7.59-1a70.07,70.07,0,0,0-3.89,8.26c-.34,1,.5,3,1.43,3.77,2.4,2,5.16,3.51,7.23,6.26l-11.18-5.45-14.23,32.76-1.32-.53,13.17-32.2-33-30.05c12.74,7.2,21,20.13,35.13,26.44l4.9-10.85L837.94,508l11.81-10.5L824.64,487c2.14,4.61.1,9.71-7.57,14.19a40.44,40.44,0,0,1,3.14-5.13,53.12,53.12,0,0,1,5-4.68c-6.08-1.46-11.21-4.28-17-.19-1.61,1.14-5.3-.35-7.92-1.05a49,49,0,0,1-6.6-2.83l-6.46,17.63-2-.29c.28-3.61-.11-7.43,1-10.79,5.84-18.33,12-36.57,18.22-54.77.68-2,2.72-3.51,4.14-5.24l1.5,1-13.27,40.65,6.47.44c.73-2.75.75-5.3,2-7,4.62-6.48,9.74-12.61,14.39-19.07,1-1.41.88-3.66,1.28-5.56-4.14,5.17-8.06,10.18-12.18,15-.37.43-2.07-.28-3.12-.46,1.95-18.26,26.18-37.41,42-32.84-5.93,2.11-11.45,3.79-16.71,6.05-3.6,1.55-8.35,2.4-8.42,7.83a62.44,62.44,0,0,0,.82,7.17c5.29-9.7,13-5.67,20-5.45,14.91.46,27.57,9.49,42.23,10.82,1.51.14,3,.47,4.51.71l.63-1.45-8.86-6,.53-.94c1.58.88,3.23,1.66,4.73,2.65,2.7,1.77,4.89,1.75,6.43-1.43-1,2.14-.83,3.53,1.84,4.29A33.94,33.94,0,0,1,901,453Zm-49.23,59.9c3.54.84,7.05,1.85,10.64,2.44,1.15.19,3.18-.4,3.62-1.25,1.71-3.32,3-6.89,4.14-9.82-2.35-.35-4.4-.34-6.2-1-3.4-1.25-6.64-3-10-4.32-.93-.38-2.68-.7-3-.27-2.31,3.06-4.35,6.32-6.47,9.52l-3.2.78,21.54,13.67,1.83-5.13Zm23.94-16.83a27.16,27.16,0,0,0,4.13-.42c6.48-1.84,13-3.65,19.39-5.7,4.6-1.47,8.45-3.86,8.43-10.09L890,473.78c-2,4.21-3.64,8.17-5.81,11.79-.67,1.12-.61,5.27-4.05,2.44Zm-41.34-45.22-6.57,26.72,16.53,7.9c.47-.76.65-.95.62-1-4.28-7.88-8.6-15.57-6.18-25.31C839.25,457.09,836.19,454.15,834.34,450.83Zm76.07,30.65-1.22,5.69L920,485.6l0-1Z" transform="translate(-342.59 130.59)" fill="#333f33"/><path d="M912,565.38c-1.51-4.44,2.76-7.57,3.59-11.48.93-4.37,2.34-8.64,3.66-12.92s2.76-8.52,4.21-12.75,3-8.43,4.89-13.76L910.53,521l-.32-.83c4.15-1.62,8.21-3.5,12.46-4.79,5.15-1.57,8.16-4.5,8.66-10,.21-2.3,1.26-4.52,2.29-8,2.31,5.13-2.45,9.83,1,13.18-1.09,1.82-2.89,3.92-3.68,6.34-3.84,11.75-7.23,23.65-11.16,35.36-1.59,4.74-4.17,9.15-6.29,13.71Z" transform="translate(-342.59 130.59)" fill="#333f33"/><path d="M897.71,446.73l3.38-2.52c15.77,9.85,33.67,18.14,46.54,33.59-12.54-10.39-28-15.38-41.9-23.29l2.44.61.81-1.47Z" transform="translate(-342.59 130.59)" fill="#333f33"/><path d="M890.55,507.07l5.59-5.9,1.4.39c-.37,1.68-.22,3.9-1.26,4.89-1.24,1.19-3.48,1.32-5.29,1.91Z" transform="translate(-342.59 130.59)" fill="#333f33"/><path d="M593.44,505.4c1.92,1.21,3.33,2.87,4.73,2.86,8.22,0,16.48-.1,24.65-.92,4.74-.48,9.34-2.41,13.56-3.56-.84,6.79-26.75,11-41.17,5L588,547.37c-4.45.61-5.51-.29-4.32-4.92C586.93,529.9,590.28,517.4,593.44,505.4Z" transform="translate(-342.59 130.59)" fill="#333f33"/><path d="M584.83,423.53c4.41,4.21,2.4,7.76-7.17,11.81Z" transform="translate(-342.59 130.59)" fill="#333f33"/><path d="M582.62,437.81c-5,1.45-10.18,2.76-15.28-2Z" transform="translate(-342.59 130.59)" fill="#333f33"/></svg>