<?xml version="1.0" encoding="utf-8"?>
<!-- Generator: Adobe Illustrator 21.1.0, SVG Export Plug-In . SVG Version: 6.00 Build 0)  -->
<svg version="1.1" id="Layer_1" xmlns="http://www.w3.org/2000/svg" xmlns:xlink="http://www.w3.org/1999/xlink" x="0px" y="0px"
	 viewBox="0 0 102.7 205" style="enable-background:new 0 0 102.7 205;" xml:space="preserve">
<style type="text/css">
	.st0{fill:#FF9F1C;}
</style>
<g>
	<path class="st0" d="M102.7,51.6c-0.5-23.7-9-48.7-9-48.7h-3c0,0,7.8,23.9,8.2,46.6c0.4,22.7-7.7,32.7-20.1,39.8
		c-12.4,7.1-31.6,10.7-47.9,0C14.7,78.5,8.8,68.9,8.2,52.3c-0.6-16.6,10-49.5,10-49.5h-3.8c0,0-11.6,34.4-11,51.7
		c0.6,15.4,5.7,25.1,19.5,35c1.7,1.2,3.4,2.4,5.3,3.6l0,0c0,0,0.1,0,0.1,0.1c0,0,0,0,0,0c1.3,0.8,2.6,1.6,4,2.2
		c8.5,5.3,13.5,12.4,16.3,17.4c1.3,2.7,2.2,5.6,2.5,8.6c2.9,29.1,2.1,59.6-5.4,69.6c-3.3,4.3-8,7-13,8.6c-8.5,0.5-13.9,1.4-13.9,2.4
		l0,0l0,0l0,0c0,1.6,16.1,3,35.9,3c18.8,0,34.2-1.2,35.8-2.7c0.5-0.1,0.7-0.2,0.7-0.3c0-0.1-0.2-0.2-0.7-0.3
		c-0.9-0.8-5.9-1.6-13.4-2.1c-4.9-1.5-9.6-4-12.8-8.3c-7.6-10-7.2-40.8-5.4-70c0.3-5.1,2.1-9.5,4.6-13.4c3.3-4.6,8.1-9.8,15.2-13.8
		c0.7-0.4,1.4-0.7,2.1-1.1c1.8-1,3.5-2,5.1-3.2c0,0,0,0,0,0l0,0C96.5,82.7,103.1,72.1,102.7,51.6z"/>
	<path class="st0" d="M92.1,56.6c-8.4,0-16.4-1.9-23.6-5.3C36.9,36.7,12.2,48,11.8,48c-0.1,0.8-0.2,1.7-0.2,2.6
		c0,12.8,7.3,39.7,41.4,39.7c34.7,0,41.3-19.1,42.6-33.8C94.5,56.6,93.3,56.6,92.1,56.6z"/>
</g>
</svg>
