<?xml version="1.0" encoding="utf-8"?>
<!-- Generator: Adobe Illustrator 22.1.0, SVG Export Plug-In . SVG Version: 6.00 Build 0)  -->
<svg version="1.1" id="Layer_1" xmlns="http://www.w3.org/2000/svg" xmlns:xlink="http://www.w3.org/1999/xlink" x="0px" y="0px"
	 viewBox="0 0 400 400" style="enable-background:new 0 0 400 400;" xml:space="preserve">
<style type="text/css">
	.st0{fill:#F79F1B;}
</style>
<title>haenyo_logo</title>
<g>
	<path class="st0" d="M295.3,195c-0.2-2.9-0.2-5.8-0.8-8.5c-0.7-3.9-2-7.6-2.8-11.5c-0.3-1.3-0.1-2.7,0.1-4c0.2-2.1,1.6-2.6,3.6-2.7
		c5.2-0.4,9.7,1.6,14.4,3.6c2.7,1.2,5.5,2.1,8.4,2.9c2.6,0.7,4.1,2.3,4.3,4.9c0.2,2.6,0.2,5.3-0.5,7.7c-1.7,6.5-3.4,13-5.7,19.3
		c-2.9,7.9-6.8,15.4-9.7,23.3c-1.6,4.5-2,9.4-2.8,14.2c-1.8,11.3-10.6,18.5-22.2,18c-2.5-0.1-4.9-0.4-7.4-0.6c-2.6-0.2-4-1.8-4.9-4
		c-2.1-5.3-2-10.7-0.7-16.1c0.6-2.4,2.1-3.7,5-3.4c3,0.3,4.7-1.1,4.2-4c-1.1-6.3-2.6-12.6-4.1-18.9c-0.7-3.1-1.9-6.2-2.7-9.3
		c-1.9-6.6-3.9-13.3-5.4-20c-0.8-3.5-1-7.2-1.1-10.9c-0.1-2.4,2-4.3,4.3-4.2c3.2,0.1,6.4,0.4,9.7,0.5c5.3,0.1,7.7,3.5,9.3,7.9
		c1.8,4.9,3.4,9.8,5.2,14.7c0.2,0.6,0.7,1.1,1.1,1.7C294.4,195.2,294.8,195.1,295.3,195z M301,194.1c-1.4,5.3-2.7,11-4.5,16.5
		c-0.9,2.8-3.1,2.8-4.7,0.3c-0.4-0.6-0.6-1.3-0.8-2c-2.4-8.6-4.8-17.2-7.3-25.8c-1.6-5.7-5.9-8.2-11.6-6.6c-1,0.3-2.1,1.7-2.4,2.8
		c-0.4,1.2-0.1,2.7,0.3,4c2.1,8.1,4.3,16.1,6.5,24.1c2.3,8.5,4.8,16.9,7.1,25.4c1.7,6.3,0.2,8.7-6,10.1c-3.7,0.9-4.5,1.7-4.6,5.5
		c-0.1,1.4,0.1,2.9,0.5,4.3c0.6,2.5,2.1,3.8,4.8,4.3c5.6,1,10.1-0.6,14.4-4.2c3.6-3,5.6-6.4,6.2-10.9c0.9-6.8,1.8-13.6,4.9-20
		c2.8-5.9,4.7-12.3,7.7-18c3-5.8,4.5-11.9,5.6-18.1c0.7-3.7-0.6-5.8-3.9-7c-3.4-1.3-6.8-2.8-10.3-3.9c-1.5-0.5-3.4-0.6-4.7,0.1
		c-0.7,0.3-0.6,2.7-0.3,4.1C298.7,183.9,299.8,188.7,301,194.1z"/>
	<path class="st0" d="M22.1,183.1c-0.4-12.4-0.9-24.7-1.2-37.1c-0.2-8.9,1.3-10.3,10.3-10.2c6.4,0.1,8.7,2,10,8.2
		c0.9,4.4,1.6,8.8,2.7,13.1c0.8,3,3.5,4.8,6.7,4.8c12.1,0.2,16.4,6.1,17.9,15.1c1.4,8,2.4,16.1,2.8,24.3c0.3,5.1-0.4,10.4-1.2,15.5
		c-0.9,5.8-7.4,9.7-13.1,8.2c-1.6-0.4-3.3-1.8-4.2-3.3c-2.7-4.6-3.2-9.8-3.4-15.1c-0.1-3.7-0.3-7.4-0.1-11c0.1-1.8-0.3-2.7-1.5-2.8
		c-1.2-0.1-1.2,0.5-1.7,2.5c-0.6,2.5-0.4,5.3-0.6,8c-0.2,4.3,0.1,8.6-0.6,12.9c-0.7,4.7-2.3,5.4-7.1,5.3c-7.5-0.2-10.7-5.3-13-11.3
		c-2.8-7-3.2-14.3-3-21.7C21.9,186.7,22,183.1,22.1,183.1z M54.7,203.7c0,2.2-0.2,4.3,0,6.5c0.2,2.2,0.6,4.5,1.3,6.6
		c1.4,3.8,5.2,4.5,7.7,1.4c1-1.2,1.9-2.9,2.1-4.5c0.5-3.7,0.9-7.5,0.6-11.3c-0.8-8.6-1.8-17.3-3.2-25.8c-1.2-6.8-6.7-10.7-13.4-10.3
		c-0.9,0.1-2,0.4-2.7,0.9c-3,2-4.6,1.9-6.1-1.4c-1.4-3-2.1-6.4-2.9-9.7c-0.9-3.6-1.3-7.4-2.4-11c-0.8-2.8-4.3-4.8-6.8-4.2
		c-2.9,0.7-2.4,3.4-2.7,5.5c-0.1,1-0.1,2,0,3c0.2,7.9,0.4,15.8,0.5,23.7c0.1,5.8-0.1,11.7,0.1,17.5c0.2,6.4,0.4,12.8,3.3,18.7
		c1.1,2.3,2.9,4.5,4.9,6.1c2.3,2,4.6,0.8,5.1-2.2c0.1-0.7,0.1-1.4,0.1-2.1c0.2-5.3,0-10.6,0.6-15.8c0.4-3.3,1.6-6.6,3-9.6
		c1.4-2.9,5.4-3,7.4-0.3c0.6,0.8,1.1,1.7,1.5,2.6C55.1,192.7,54.7,198.2,54.7,203.7z"/>
	<path class="st0" d="M250.2,220.4c-0.1,4.1-2.3,8-7.5,6.3c-1.8-0.6-3.9-0.3-5.9-0.2c-6.2,0.1-8.6-2-8.6-8.3c-0.1-7.2,0-14.4,0-21.5
		c0-1.3-0.1-2.7-0.5-4c-0.3-0.8-1.2-1.4-1.8-2.1c-0.5,0.7-1.3,1.5-1.4,2.3c-0.3,3.1-0.5,6.2-0.6,9.4c-0.2,5.3-0.3,10.6-0.6,15.8
		c-0.3,4.9-2.6,7.1-7.5,7.2c-2.7,0.1-5.4,0.2-8,0.3c-2,0-4.3-2.1-4.9-5c-0.5-2.4-1.1-5-1-7.4c0.6-12.7-1.5-25.2-3.1-37.7
		c-0.1-0.5-0.2-1.1-0.2-1.6c-0.5-7.9,2.5-10.9,10.5-11c3.6,0,6.1,1.1,8.5,3.6c0.8,0.9,2.5,1.3,3.7,1.3c3.7-0.2,7.3-1.2,10.9-1
		c9.5,0.4,16.6,6.9,17.8,16.4C250.9,188.5,250.4,213.5,250.2,220.4z M245.7,199.4c-0.1,0-0.2-8.1-0.2-12.1c0-9.4-7.8-17.4-18.1-15.7
		c-2.6,0.4-5.3,1-7.8,1.8c-2.5,0.8-4.3,0.2-5.8-1.9c-0.9-1.2-1.9-2.4-3.2-3.2c-3.4-2.2-6.3-0.7-6.5,3.3c-0.1,2.1,0.1,4.3,0.3,6.4
		c0.8,8.9,1.6,17.8,2.4,26.7c0.3,3.6,0.3,7.2,0.6,10.7c0.2,3,2.8,5.3,5.7,5.4c3.2,0.1,4.7-1.3,5-5c0.4-5.5,0.3-10.9,0.6-16.4
		c0.2-4.1,0.7-8.2,1.3-12.3c0.4-2.6,2.3-4,4.8-4.5c2.6-0.5,5,0.3,6.1,2.8c1.2,2.9,2.3,6,2.7,9.1c0.5,3.6,0,7.3,0.1,11
		c0.1,3.9,0.1,7.9,0.6,11.8c0.4,3.1,2.4,4.5,5.2,4.3c3.6-0.2,5.3-1.6,5.5-5C245.2,211.1,245.4,205.3,245.7,199.4z"/>
	<path class="st0" d="M188.2,196.1c-0.6,2.8-1.2,5.9-1.8,9.1c-0.3,1.6-0.9,3.3-0.5,4.7c1.1,5.1-1.2,9-4,12.9
		c-5.3,7.4-13.1,9-21.4,8.8c-7.6-0.2-16.5-8.1-18.4-16.2c-0.9-3.9-0.8-8-0.8-12c0.1-4,0-8.3,1.4-11.9c3.3-8.9,8.7-16.4,18.2-19.5
		c6.2-2,12.8-2.1,18.5,1.9c3.9,2.7,6,6.9,7.1,11.4C187.4,188.7,187.6,192.2,188.2,196.1z M174.1,202.5c1.4,0,2.9,0,4.3,0
		c2,0,3.6-0.8,4-2.9c0.4-1.8,0.6-3.7,0.5-5.6c-0.4-6.1-1.8-11.8-6.8-15.8c-3.6-2.8-7.6-4.1-12.3-3.1c-5.2,1-9.4,3.7-12.3,8.1
		c-3.5,5.2-5.8,10.9-5.4,17.4c0.3,4.5,0,9.2,1.1,13.6c0.9,3.2,3.1,6.7,5.8,8.7c4.5,3.5,9.9,5,16,3.1c4.7-1.4,8.1-3.7,10-8.1
		c1.2-2.7,0.6-4.6-2.3-5c-2.8-0.4-5.8,0.2-8.6,0.7c-1.8,0.3-3.6,1.2-5.4,1.3c-2.9,0.3-5-2.1-5.4-5.8c-0.3-2.8,0.9-4.6,3.9-5.1
		C165.4,203.4,174.1,202.4,174.1,202.5z"/>
	<path class="st0" d="M133.7,207.8c-1.1,4.9-2,11.2-3.9,17.2c-1.9,5.8-6.2,7.7-12.2,6.3c-2-0.4-4-0.9-5.9-1.7
		c-3.2-1.4-6.5-0.7-9.8-0.5c-2.6,0.1-5.2,0.2-7.7-0.3c-5.9-1.3-9.9-6.6-10.3-13.8c-0.3-5.4,0.1-10.7,1.9-15.9c0.7-2,0.4-4.4,0-6.5
		c-0.8-5.4-0.7-10.4,3.6-14.7c5.3-5.3,11.4-7.2,18.9-7.4c5.9-0.2,10.3,1.8,14.7,5.1c4.7,3.5,7.3,8.2,8.3,13.7
		C132.5,194.9,132.9,200.7,133.7,207.8z M128.8,208.7c-0.4-4.4-0.5-7.8-0.9-11.1c-0.7-5-1.4-9.9-4.5-14.4
		c-6.2-8.6-16.4-10.9-25.6-6.9c-3.4,1.5-5.2,4.6-6.1,8.1c-0.7,3.1,1.7,4.5,3.9,6.1c4.2,3,3.5,7-1.2,9.2c-2.2,1-4.6,1.9-4.9,4.8
		c-0.3,3.3-0.7,6.6-0.6,9.9c0.2,5.2,3.3,9.4,7.6,9.8c3,0.3,6.1,0.1,9-0.7c3-0.9,5.3-0.9,8,0.9c6.5,4.3,12.2,2.1,13.9-5.3
		C128,215.4,128.4,211.6,128.8,208.7z"/>
	<path class="st0" d="M349.7,234.2c-8.1,1.2-13.2-2.9-16.7-9.6c-2.5-4.7-5-9.5-5.2-14.9c-0.4-8.1-0.1-16.2,4.3-23.4
		c1.5-2.5,3.8-4.5,6-6.5c8.1-7.6,17.6-8.3,27.9-5.7c5.7,1.4,10.5,3.7,13.5,9.2c3.1,5.8,3.3,11.7,0.7,17.4c-3,6.8-6.7,13.3-10.8,19.5
		c-3,4.5-6.9,8.6-11,12.1C356.3,234.1,349.7,234.5,349.7,234.2z M332,205.1c0.2,8.9,3.6,15.4,8.7,20.9c4.2,4.6,12.4,4.5,17,0.3
		c8.8-8,14.2-18.4,18.8-29.1c3.2-7.5-1.2-14.9-9.1-17.1c-4.9-1.4-9.8-2.6-15-1.1c-3,0.8-6.3,0.8-8.7,3.2c-1.9,2-4.2,3.7-5.8,5.9
		c-1.7,2.3-3.4,4.9-4.3,7.6C332.6,199,332.4,202.7,332,205.1z"/>
	<path class="st0" d="M165.5,192.5c-3.8,0.1-5.5-1.5-5.7-5.2c-0.1-2.9,1.9-4.9,5.2-4.9c3.1,0,5.5,2.4,5.5,5.7
		C170.6,191.4,169.4,192.4,165.5,192.5z"/>
	<path class="st0" d="M107.7,205.3c4.3,0.1,6.9,2.5,6.7,6.2c-0.2,3.3-3.6,6.2-7,6.1c-3-0.1-5.9-3.7-5.8-7.3
		C101.7,206.7,103.5,205.2,107.7,205.3z"/>
	<path class="st0" d="M109.8,198.8c-2.9-0.1-5.5-0.5-6.8-3.6c-1.1-2.6-0.9-5.1,0.9-6.9c1.8-1.8,4.6-2.2,7-1.1c2.7,1.3,4.9,5.8,4,8.7
		C114.2,198.4,112,198.7,109.8,198.8z"/>
	<path class="st0" d="M353.4,189.2c7.7,0,10.7,3.5,9.9,10.7c-0.8,7.2-3.9,13.1-9.7,17.6c-3,2.4-6.9,1.4-8.4-2.6
		c-1-2.5-1.8-5.4-1.6-8.1c0.4-4.3,1.7-8.6,2.8-12.8C347.5,190.2,350.2,188.9,353.4,189.2z M348,206.3c0.4,1.8,0.6,3.2,1.1,4.5
		c0.6,1.4,1.7,1.7,3,0.6c4-3.1,6.2-7,6.5-12.1c0.1-2.3-0.7-4-3-4.4c-2.2-0.4-4.4,0-5.2,2.6C349.5,200.5,348.7,203.5,348,206.3z"/>
</g>
</svg>
