<?xml version="1.0" encoding="utf-8"?>
<!-- Generator: Adobe Illustrator 22.1.0, SVG Export Plug-In . SVG Version: 6.00 Build 0)  -->
<svg version="1.1" id="Layer_1" xmlns="http://www.w3.org/2000/svg" xmlns:xlink="http://www.w3.org/1999/xlink" x="0px" y="0px"
	 viewBox="0 0 400 400" style="enable-background:new 0 0 400 400;" xml:space="preserve">
<style type="text/css">
	.st0{fill:#FF9F1C;}
</style>
<g>
	<path class="st0" d="M162.4,144.9c0,8.4-6.4,13.9-15.1,13.9c-8.7,0-15.1-5.6-15.1-13.9c0-8.4,6.4-13.9,15.1-13.9
		C156,130.9,162.4,136.6,162.4,144.9z M135.2,247.1v-78.2h24.2v78.2H135.2z"/>
	<path class="st0" d="M175.5,247.1V137.6h24.2v109.5H175.5z"/>
	<path class="st0" d="M294.2,208.1c0,23.6-18.1,41-41,41s-41-17.5-41-41c0-23.6,18.3-41,41-41C275.8,167.1,294.2,184.4,294.2,208.1z
		 M236.7,208.1c0,11,7.3,17.9,16.5,17.9c9.4,0,16.5-7,16.5-17.9c0-10.8-7.1-17.9-16.5-17.9C243.8,190.1,236.7,197.2,236.7,208.1z"/>
	<path class="st0" d="M355.8,247.1V192H331v55.1h-24.2v-78.2H380v78.2H355.8z"/>
	<polygon class="st0" points="43.5,147.6 43.5,181.6 67.7,181.6 67.7,170.6 67.7,170.6 95.7,170.6 95.7,192.9 20,192.9 20,215.9 
		43.5,215.9 43.5,247.1 67.7,247.1 67.7,215.9 119.9,215.9 119.9,147.6 	"/>
</g>
</svg>
